<svg width="500" height="500" viewBox="0 0 500 500" fill="none" xmlns="http://www.w3.org/2000/svg">
<path d="M183.554 383.473L188.718 398.215L176.176 388.633L162.896 398.215L168.06 382.736L155.518 373.891H171.011L176.176 359.149L180.603 373.891H196.096L183.554 383.473Z" fill="white"/>
<path d="M258.071 402.638L263.236 418.117L249.956 408.535L237.413 418.117L241.84 402.638L229.297 393.793H244.791L249.956 379.051L255.12 393.793L270.614 393.056L258.071 402.638Z" fill="white"/>
<path d="M386.448 328.928L391.613 344.407L378.332 334.088L365.79 343.67L370.217 328.928L357.674 320.083L373.168 319.346L378.332 304.604L383.497 319.346H398.991L386.448 328.928Z" fill="white"/>
<path d="M331.851 383.473L337.016 398.215L324.473 388.633L311.193 398.215L316.357 382.736L303.815 373.891H319.309L324.473 359.149L328.9 373.891H344.394L331.851 383.473Z" fill="white"/>
<path d="M129.695 328.928L134.859 344.407L121.579 334.088L109.036 343.67L113.463 328.928L100.921 320.083L116.414 319.346L121.579 304.604L126.006 319.346H142.237L129.695 328.928Z" fill="white"/>
<path d="M109.774 255.218L114.939 269.96L101.658 260.378L88.378 269.96L93.5426 254.481L81 245.636H96.4938L101.658 230.894L106.085 245.636H122.317L109.774 255.218Z" fill="white"/>
<path d="M183.554 126.963L188.718 142.442L176.176 132.123L162.896 141.705L168.06 126.963L155.518 117.381H171.011L176.176 102.639L180.603 117.381H196.096L183.554 126.963Z" fill="white"/>
<path d="M129.695 180.771L134.859 196.25L121.579 185.931L109.036 195.513L113.463 180.771L100.921 171.189H116.414L121.579 156.447L126.006 171.189H142.237L129.695 180.771Z" fill="white"/>
<path d="M258.071 106.324L263.236 121.803L249.956 111.484L237.413 121.066L241.84 106.324L229.297 96.742H244.791L249.956 82L255.12 96.742H270.614L258.071 106.324Z" fill="white"/>
<path d="M331.851 126.963L337.016 142.442L324.473 132.123L311.193 141.705L316.357 126.963L303.815 117.381H319.309L324.473 102.639L328.9 117.381H344.394L331.851 126.963Z" fill="white"/>
<path d="M407.107 255.218L411.533 269.96L398.991 260.378L385.71 269.96L390.875 254.481L378.332 245.636H393.826L398.991 230.894L403.418 245.636H418.911L407.107 255.218Z" fill="white"/>
<path d="M386.448 180.771L391.613 196.25L378.332 185.931L365.79 195.513L370.217 180.771L357.674 171.189H373.168L378.332 156.447L383.497 171.189H398.991L386.448 180.771Z" fill="white"/>
<rect x="6" y="6" width="488" height="488" stroke="white" stroke-width="12"/>
</svg>
