<svg width="200" height="200" viewBox="0 0 200 200" fill="none" xmlns="http://www.w3.org/2000/svg">
<g clip-path="url(#clip0)">
<path d="M107.635 50.0912C106.793 49.2503 105.429 49.2496 104.587 50.0912L82.2447 72.4333C81.4028 73.2749 81.4028 74.639 82.2445 75.4808C82.6654 75.9015 83.2166 76.1118 83.7684 76.1118C84.3196 76.1118 84.8713 75.9015 85.2923 75.4808L107.635 53.1388C108.476 52.2969 108.476 50.9326 107.635 50.0912Z" fill="black"/>
<path d="M113.711 56.0713C112.869 55.2302 111.505 55.2302 110.663 56.0713L88.3208 78.4138C87.4794 79.2557 87.4794 80.6198 88.3206 81.4614C88.7415 81.8821 89.2933 82.0923 89.8445 82.0923C90.3958 82.0923 90.9475 81.8821 91.3684 81.4614L113.711 59.1187C114.553 58.277 114.553 56.9127 113.711 56.0713Z" fill="black"/>
<path d="M92.6334 93.8003L120.369 66.0648C121.21 65.223 121.21 63.8589 120.369 63.0173C119.527 62.1763 118.163 62.1756 117.321 63.0173L89.5863 90.7527C86.1693 94.1694 80.9446 95.0659 76.5855 92.9842C75.7183 92.5703 74.6828 92.7796 74.0451 93.4982L64.6211 104.116C64.6174 104.12 64.6131 104.124 64.6094 104.128C64.6056 104.132 64.6028 104.136 64.5991 104.141L23.8673 150.031C23.857 150.042 23.8466 150.054 23.8366 150.066C23.7023 150.224 23.5755 150.362 23.447 150.491C20.7576 153.18 16.3818 153.18 13.6935 150.491C12.3909 149.189 11.6734 147.456 11.6734 145.614C11.6734 143.772 12.3909 142.04 13.6959 140.735C13.821 140.609 13.9593 140.483 14.1184 140.347C14.1306 140.337 14.1423 140.327 14.1541 140.317L39.6184 117.715C40.5086 116.925 40.5895 115.563 39.7996 114.673C39.0095 113.783 37.6474 113.701 36.7577 114.492L11.3102 137.079C11.0669 137.286 10.8491 137.487 10.6462 137.69C8.52954 139.807 7.36375 142.621 7.36375 145.614C7.36375 148.607 8.5293 151.422 10.6459 153.538C12.831 155.723 15.7005 156.816 18.5706 156.815C21.4396 156.815 24.3098 155.723 26.4932 153.54C26.7002 153.333 26.9006 153.115 27.1063 152.874L58.1451 117.904L89.1843 152.875C89.3899 153.116 89.5903 153.334 89.7958 153.539C91.9804 155.724 94.8501 156.816 97.7198 156.816C100.59 156.816 103.46 155.723 105.644 153.539C110.013 149.169 110.013 142.06 105.646 137.692C105.439 137.485 105.221 137.285 104.98 137.079L69.2638 105.377L76.2517 97.5044C81.9135 99.5104 88.3199 98.113 92.6334 93.8003ZM102.136 140.317C102.148 140.327 102.16 140.338 102.172 140.348C102.329 140.482 102.468 140.609 102.597 140.737C105.286 143.426 105.286 147.802 102.597 150.491C99.9074 153.18 95.5319 153.18 92.8417 150.49C92.7145 150.362 92.5872 150.224 92.4529 150.066C92.4428 150.054 92.4325 150.042 92.4222 150.03L61.026 114.658L66.4024 108.6L102.136 140.317Z" fill="black"/>
<path d="M101.167 43.8152C100.325 42.974 98.961 42.974 98.1194 43.8152L70.3844 71.5509C66.0705 75.8643 64.6736 82.27 66.6796 87.933L58.1448 95.5085L49.9422 88.2278C54.1841 79.8813 52.6356 69.7471 45.9058 63.017C39.2219 56.3331 31.48 51.6295 24.1063 49.773C16.4087 47.8354 9.80921 49.1289 5.52155 53.4163C1.2339 57.7038 -0.0598527 64.3042 1.87819 72.0013C3.73491 79.3745 8.43835 87.1164 15.1227 93.8001C21.8526 100.53 31.9865 102.079 40.3335 97.8367C40.3335 97.8367 48.355 106.874 48.4567 106.989C48.8826 107.468 49.4744 107.713 50.0692 107.713C50.578 107.713 51.0885 107.534 51.4989 107.17L70.6862 90.1389C71.4046 89.5012 71.6139 88.4652 71.2002 87.5985C69.118 83.2389 70.0147 78.0147 73.4317 74.5982L101.167 46.8628C102.009 46.0209 102.009 44.6568 101.167 43.8152ZM50.2494 102.516L42.4054 93.6792C41.7107 92.8966 40.5533 92.7255 39.6627 93.2756C32.7538 97.5358 23.9155 96.4992 18.1696 90.753C12.028 84.6117 7.72655 77.5788 6.0571 70.949C4.50436 64.781 5.3964 59.6364 8.56913 56.4639C11.7414 53.291 16.8859 52.3994 23.0537 53.9524C29.6835 55.6216 36.7169 59.9228 42.8579 66.0644C48.6039 71.8101 49.6408 80.6484 45.3803 87.5573C44.8309 88.4481 45.0013 89.605 45.7839 90.2999L54.8983 98.3896L50.2494 102.516Z" fill="black"/>
</g>
<defs>
<clipPath id="clip0">
<rect width="120" height="120" fill="white" transform="translate(1 40)"/>
</clipPath>
</defs>
</svg>
