<svg width="200" height="200" viewBox="0 0 200 200" fill="none" xmlns="http://www.w3.org/2000/svg">
<g clip-path="url(#clip0)">
<path d="M146.635 50.0912C145.793 49.2503 144.429 49.2496 143.587 50.0912L121.245 72.4333C120.403 73.2749 120.403 74.639 121.244 75.4808C121.665 75.9015 122.217 76.1118 122.768 76.1118C123.32 76.1118 123.871 75.9015 124.292 75.4808L146.635 53.1388C147.476 52.2969 147.476 50.9326 146.635 50.0912Z" fill="black"/>
<path d="M152.711 56.0713C151.869 55.2302 150.505 55.2302 149.663 56.0713L127.321 78.4138C126.479 79.2557 126.479 80.6198 127.321 81.4614C127.742 81.8821 128.293 82.0923 128.845 82.0923C129.396 82.0923 129.947 81.8821 130.368 81.4614L152.711 59.1187C153.553 58.277 153.553 56.9127 152.711 56.0713Z" fill="black"/>
<path d="M131.633 93.8003L159.369 66.0648C160.21 65.223 160.21 63.8589 159.369 63.0173C158.527 62.1763 157.163 62.1756 156.321 63.0173L128.586 90.7527C125.169 94.1694 119.945 95.0659 115.585 92.9842C114.718 92.5703 113.683 92.7796 113.045 93.4982L103.621 104.116C103.617 104.12 103.613 104.124 103.609 104.128C103.606 104.132 103.603 104.136 103.599 104.141L62.8673 150.031C62.857 150.042 62.8466 150.054 62.8366 150.066C62.7023 150.224 62.5755 150.362 62.447 150.491C59.7576 153.18 55.3818 153.18 52.6935 150.491C51.3909 149.189 50.6734 147.456 50.6734 145.614C50.6734 143.772 51.3909 142.04 52.6959 140.735C52.821 140.609 52.9593 140.483 53.1184 140.347C53.1306 140.337 53.1423 140.327 53.1541 140.317L78.6184 117.715C79.5086 116.925 79.5895 115.563 78.7996 114.673C78.0095 113.783 76.6474 113.701 75.7577 114.492L50.3102 137.079C50.0669 137.286 49.8491 137.487 49.6462 137.69C47.5295 139.807 46.3638 142.621 46.3638 145.614C46.3638 148.607 47.5293 151.422 49.6459 153.538C51.831 155.723 54.7005 156.816 57.5706 156.815C60.4396 156.815 63.3098 155.723 65.4932 153.54C65.7002 153.333 65.9006 153.115 66.1063 152.874L97.1451 117.904L128.184 152.875C128.39 153.116 128.59 153.334 128.796 153.539C130.98 155.724 133.85 156.816 136.72 156.816C139.59 156.816 142.46 155.723 144.644 153.539C149.013 149.169 149.013 142.06 144.646 137.692C144.439 137.485 144.221 137.285 143.98 137.079L108.264 105.377L115.252 97.5044C120.914 99.5104 127.32 98.113 131.633 93.8003ZM141.136 140.317C141.148 140.327 141.16 140.338 141.172 140.348C141.329 140.482 141.468 140.609 141.597 140.737C144.286 143.426 144.286 147.802 141.597 150.491C138.907 153.18 134.532 153.18 131.842 150.49C131.714 150.362 131.587 150.224 131.453 150.066C131.443 150.054 131.433 150.042 131.422 150.03L100.026 114.658L105.402 108.6L141.136 140.317Z" fill="black"/>
<path d="M140.167 43.8152C139.325 42.974 137.961 42.974 137.119 43.8152L109.384 71.5509C105.07 75.8643 103.674 82.27 105.68 87.933L97.1448 95.5084L88.9422 88.2278C93.1841 79.8813 91.6356 69.7471 84.9058 63.017C78.2219 56.3331 70.48 51.6295 63.1063 49.773C55.4087 47.8354 48.8092 49.1289 44.5216 53.4163C40.2339 57.7038 38.9401 64.3042 40.8782 72.0013C42.7349 79.3745 47.4383 87.1164 54.1227 93.8001C60.8526 100.53 70.9865 102.079 79.3335 97.8367C79.3335 97.8367 87.355 106.874 87.4567 106.989C87.8826 107.468 88.4744 107.713 89.0692 107.713C89.578 107.713 90.0885 107.534 90.4989 107.17L109.686 90.1389C110.405 89.5012 110.614 88.4652 110.2 87.5985C108.118 83.2389 109.015 78.0147 112.432 74.5982L140.167 46.8628C141.009 46.0209 141.009 44.6568 140.167 43.8152ZM89.2494 102.516L81.4054 93.6792C80.7107 92.8966 79.5533 92.7255 78.6627 93.2756C71.7538 97.5358 62.9155 96.4992 57.1696 90.753C51.028 84.6117 46.7266 77.5788 45.0571 70.949C43.5044 64.781 44.3964 59.6364 47.5691 56.4639C50.7414 53.291 55.8859 52.3994 62.0537 53.9524C68.6835 55.6216 75.7169 59.9228 81.8579 66.0644C87.6039 71.8101 88.6408 80.6484 84.3803 87.5573C83.8309 88.4481 84.0013 89.605 84.7839 90.2999L93.8983 98.3896L89.2494 102.516Z" fill="black"/>
</g>
<defs>
<clipPath id="clip0">
<rect width="120" height="120" fill="white" transform="translate(40 40)"/>
</clipPath>
</defs>
</svg>
