<svg width="200" height="200" viewBox="0 0 200 200" fill="none" xmlns="http://www.w3.org/2000/svg">
<path d="M118.996 116.003H3.0039C1.9 116.003 1.00398 116.897 1.00398 118.003C1.00398 141.159 19.8428 160 43.0011 160H78.9987C102.155 160 120.996 141.159 120.996 118.003C120.996 116.897 120.102 116.003 118.996 116.003ZM78.9987 156H43.0011C22.7204 156 6.09952 140.029 5.05562 120.003H116.944C115.9 140.029 99.2793 156 78.9987 156Z" fill="black"/>
<path d="M103.005 68.0183C103.005 67.8723 103.003 67.7263 102.989 67.5043C102.681 64.1886 100.402 61.4647 97.3917 60.4429L99.6555 58.179C103.581 54.3334 103.975 48.1818 100.539 43.8381C96.8597 39.3665 90.228 38.7304 85.7583 42.4082C85.5042 42.6182 85.2584 42.8402 85.0123 43.0863L82.5525 45.5821C81.5205 42.5882 78.7908 40.3244 75.427 40.0124C70.9974 39.7706 67.2476 43.1702 67.0097 47.5738C67.0017 47.7198 66.9996 47.8659 66.9996 48.0098V51.0756C65.8238 50.3936 64.4618 50.0017 63.008 49.9996C62.8641 49.9996 62.716 50.0036 62.494 50.0155C58.2183 50.4135 54.9286 54.0873 55.0006 58.3468V61.0668C53.8006 60.3728 52.4328 60.0008 51.009 59.9987C50.8651 59.9987 50.719 60.0027 50.4971 60.0147C46.2193 60.4126 42.9296 64.0864 43.0016 68.3462V98.0042C43.0016 99.1102 43.8976 100.004 45.0015 100.004H78.9991C83.4108 100.004 86.9986 96.4163 86.9965 92.0087C86.9965 90.5527 86.6065 89.1868 85.9226 88.0091H88.6244C92.9201 88.1269 96.5939 84.7892 96.9958 80.4355C97.0818 78.8075 96.6738 77.2677 95.902 75.9599C97.6978 75.7599 99.3597 74.9659 100.656 73.674C102.167 72.166 103.003 70.1582 103.005 68.0183ZM97.8314 70.8421C97.0755 71.5939 96.0736 72.0081 95.0036 72.0081C95.0015 72.0081 94.9997 72.0081 94.9976 72.0081H88.998C87.892 72.0081 86.9981 72.9041 86.9981 74.008C86.9981 75.1119 87.892 76.0079 88.998 76.0079L89.2181 76.014C91.4219 76.1319 93.1179 78.0198 93.0058 80.1437C92.8019 82.3475 90.9321 84.0535 88.6582 84.0073H78.9989C77.8929 84.0073 76.999 84.9034 76.999 86.0073C76.999 87.1112 77.8929 88.0072 78.9989 88.0072C81.2048 88.0072 82.9987 89.8011 82.9987 92.007C82.9987 94.213 81.2048 96.0069 78.9989 96.0069H47.0009V68.3122C46.963 66.0983 48.6629 64.2046 50.7887 64.0044L51.0066 63.9983C53.2086 64.0002 54.9982 65.7922 55.0004 67.9921V68.0061C55.0004 69.11 55.8943 70.006 56.9982 70.006C57.0003 70.006 57.0003 70.006 57.0003 70.006C58.1042 70.006 58.9981 69.1121 59.0002 68.0082V68.0064V58.3129C58.9622 56.099 60.6621 54.2052 62.7879 54.0051L63.004 53.999C65.2078 54.0029 66.9978 55.7947 66.9999 57.9967V58.0086C66.9999 59.1125 67.8938 60.0086 68.9977 60.0086C68.9998 60.0086 68.9998 60.0086 68.9998 60.0086C70.1037 60.0086 70.9976 59.1147 70.9997 58.0108V58.0086V48.0095L71.0058 47.7876C71.1218 45.5856 72.9656 43.8899 75.1336 43.9998C77.3414 44.2059 79.0392 46.0996 78.9973 48.3515V50.0113C78.9973 50.8213 79.4873 51.5533 80.2392 51.8612C80.9852 52.1692 81.8531 51.9932 82.421 51.4133L87.8465 45.9077C87.9944 45.7616 88.1465 45.6236 88.3045 45.4937C91.0722 43.218 95.174 43.6138 97.4299 46.3497C99.5657 49.0534 99.3197 52.9091 96.844 55.3351L91.5844 60.5947C91.0125 61.1666 90.8404 62.0265 91.1503 62.7747C91.4583 63.5207 92.1902 64.0086 92.9981 64.0086H94.6579C94.6999 64.0086 94.7299 64.0086 94.7639 64.0086C96.9478 64.0086 98.8036 65.6926 98.9995 67.7964L99.0056 68.0164C99.0032 69.0843 98.5875 70.0881 97.8314 70.8421Z" fill="black"/>
<path d="M87.5857 52.589L31.5906 108.584L34.4188 111.412L90.4138 55.4172L87.5857 52.589Z" fill="black"/>
<path d="M78.9949 56.019H74.9951V66.0184H78.9949V56.019Z" fill="black"/>
<path d="M66.9957 66.0184H62.9958V78.0177H66.9957V66.0184Z" fill="black"/>
<path d="M54.9964 75.9976H50.9966V89.9965H54.9964V75.9976Z" fill="black"/>
<path d="M86.9941 64.0185H76.9948V68.0181H86.9941V64.0185Z" fill="black"/>
<path d="M76.995 75.9976H64.9957V79.9972H76.995V75.9976Z" fill="black"/>
<path d="M66.9954 87.9969H52.9965V91.9967H66.9954V87.9969Z" fill="black"/>
<path d="M38.3314 49.2515C38.3295 49.2475 38.3253 49.2435 38.3234 49.2395C35.5016 45.0137 29.766 43.8658 25.5423 46.6876C25.4103 46.7737 25.2803 46.8655 25.1324 46.9757L24.4124 47.5237L23.7205 47.0256C20.0607 43.6119 14.3071 43.75 10.8233 47.3657C9.11756 49.1336 8.20162 51.4614 8.24756 53.9193C8.2935 56.3772 9.29146 58.6689 11.0575 60.3728C11.5715 60.8687 12.1433 61.3046 12.7593 61.6686L14.4432 62.9846V64.0086C14.4432 69.5223 18.9289 74.008 24.4426 74.008C29.9563 74.008 34.442 69.5202 34.4399 64.0068V62.9828L36.2098 61.6009C40.0393 58.6949 40.9693 53.2693 38.3314 49.2515ZM33.7698 58.4329L31.2099 60.4328C30.726 60.8108 30.4419 61.3928 30.4419 62.0087V64.0086C30.4419 67.3164 27.7501 70.0081 24.4424 70.0081C21.1346 70.0081 18.4428 67.3164 18.4428 64.0086V62.0087C18.4428 61.3928 18.1609 60.8108 17.6748 60.4328L15.115 58.4329C15.039 58.3729 14.957 58.3189 14.8731 58.2709C14.4972 58.0569 14.1491 57.797 13.8372 57.4949C12.8373 56.5309 12.2732 55.235 12.2472 53.8471C12.2211 52.4591 12.7391 51.1433 13.7031 50.1433C14.721 49.0874 16.0829 48.5554 17.4468 48.5554C18.7466 48.5554 20.0485 49.0372 21.0566 50.0113C21.1246 50.0753 21.1965 50.1374 21.2746 50.1932L23.2745 51.6332C23.9865 52.1472 24.9524 52.1352 25.6524 51.6032L27.7604 50.0174C28.9203 49.2414 30.3102 48.9695 31.6782 49.2395C33.042 49.5114 34.22 50.2975 34.9939 51.4534C36.4777 53.7212 35.9497 56.777 33.7698 58.4329Z" fill="black"/>
<path d="M48.9969 41.9999H44.997V45.9995H48.9969V41.9999Z" fill="black"/>
<path d="M60.9959 105.996H56.9963V109.995H60.9959V105.996Z" fill="black"/>
<path d="M108.997 52.0093V56.0092C111.203 56.0092 112.997 57.8031 112.997 60.0088C112.997 62.2145 111.203 64.0086 108.997 64.0086V68.0082C113.408 68.0082 116.996 64.4204 116.996 60.0088C116.996 55.5972 113.408 52.0093 108.997 52.0093Z" fill="black"/>
<path d="M8.99943 70.018H4.99983V74.0178H8.99943V70.018Z" fill="black"/>
<path d="M5.00358 62.0186H1.00398V66.0184H5.00358V62.0186Z" fill="black"/>
<path d="M78.9987 104.004C74.587 104.004 70.9992 107.592 70.9992 112.003H74.9991C74.9991 109.797 76.793 108.003 78.9987 108.003C81.2046 108.003 82.9985 109.797 82.9985 112.003H86.9981C86.9981 107.592 83.4103 104.004 78.9987 104.004Z" fill="black"/>
<path d="M25.0025 86.0049H24.7506C23.8585 82.5591 20.7247 80.0054 17.0031 80.0054C13.2815 80.0054 10.1455 82.5591 9.2556 86.0049H9.00365C4.59202 86.0049 1.00421 89.5927 1.00421 94.0043C1.00421 98.416 4.59202 102.004 9.00365 102.004H25.0025C29.4142 102.004 33.002 98.416 33.002 94.0043C33.002 89.5927 29.4142 86.0049 25.0025 86.0049ZM25.0025 98.0061H9.00341C6.79748 98.0061 5.00358 96.2122 5.00358 94.0065C5.00358 91.8005 6.79748 90.0066 9.00341 90.0066H11.0033C12.1072 90.0066 13.0033 89.1106 13.0033 88.0067C13.0033 85.8008 14.7972 84.0071 17.0031 84.0071C19.209 84.0071 21.0029 85.801 21.0029 88.0067C21.0029 89.1106 21.8989 90.0066 23.0028 90.0066H25.0028C27.2087 90.0066 29.0026 91.8005 29.0026 94.0065C29.0021 96.2124 27.2082 98.0061 25.0025 98.0061Z" fill="black"/>
<path d="M21.0027 98.0042H13.0033C11.8994 98.0042 11.0033 98.9002 11.0033 100.004V108.004C11.0033 109.11 11.8994 110.003 13.0033 110.003H21.0027C22.1066 110.003 23.0026 109.11 23.0026 108.004V100.004C23.0026 98.9002 22.1066 98.0042 21.0027 98.0042ZM19.0028 106.004H15.0032V102.004H19.003V106.004H19.0028Z" fill="black"/>
<path d="M106.997 92.0047C103.689 92.0047 100.997 94.6965 100.997 98.0042C100.997 101.312 103.689 104.004 106.997 104.004C110.305 104.004 112.996 101.312 112.996 98.0042C112.996 94.6965 110.305 92.0047 106.997 92.0047ZM106.997 100.006C105.893 100.006 104.997 99.1081 104.997 98.0061C104.997 96.904 105.893 96.0061 106.997 96.0061C108.101 96.0061 108.997 96.9022 108.997 98.0061C108.997 99.1102 108.101 100.006 106.997 100.006Z" fill="black"/>
<path d="M106.997 84.0052C99.2793 84.0052 92.9979 90.2848 92.9979 98.0042C92.9979 105.724 99.2793 112.003 106.997 112.003C114.714 112.003 120.996 105.724 120.996 98.0042C120.996 90.2848 114.714 84.0052 106.997 84.0052ZM106.997 108.005C101.483 108.005 96.9975 103.518 96.9975 98.0061C96.9975 92.4924 101.483 88.0067 106.997 88.0067C112.51 88.0067 116.996 92.4924 116.996 98.0061C116.996 103.52 112.51 108.005 106.997 108.005Z" fill="black"/>
</svg>
