<svg width="200" height="200" viewBox="0 0 200 200" fill="none" xmlns="http://www.w3.org/2000/svg">
<path d="M157.996 116.003H42.0039C40.9 116.003 40.004 116.897 40.004 118.003C40.004 141.159 58.8428 160 82.0011 160H117.999C141.155 160 159.996 141.159 159.996 118.003C159.996 116.897 159.102 116.003 157.996 116.003ZM117.999 156H82.0011C61.7204 156 45.0995 140.029 44.0556 120.003H155.944C154.9 140.029 138.279 156 117.999 156Z" fill="black"/>
<path d="M142.005 68.0183C142.005 67.8723 142.003 67.7263 141.989 67.5043C141.681 64.1886 139.402 61.4647 136.392 60.4429L138.656 58.179C142.581 54.3334 142.975 48.1818 139.539 43.8381C135.86 39.3665 129.228 38.7304 124.758 42.4082C124.504 42.6182 124.258 42.8402 124.012 43.0863L121.552 45.5821C120.521 42.5882 117.791 40.3244 114.427 40.0124C109.997 39.7706 106.248 43.1702 106.01 47.5738C106.002 47.7198 106 47.8659 106 48.0098V51.0756C104.824 50.3936 103.462 50.0017 102.008 49.9996C101.864 49.9996 101.716 50.0036 101.494 50.0155C97.2183 50.4135 93.9286 54.0873 94.0006 58.3468V61.0668C92.8006 60.3728 91.4328 60.0008 90.009 59.9987C89.8651 59.9987 89.719 60.0027 89.4971 60.0147C85.2193 60.4126 81.9296 64.0864 82.0016 68.3462V98.0042C82.0016 99.1102 82.8976 100.004 84.0015 100.004H117.999C122.411 100.004 125.999 96.4163 125.996 92.0087C125.996 90.5527 125.606 89.1868 124.923 88.0091H127.624C131.92 88.1269 135.594 84.7892 135.996 80.4355C136.082 78.8075 135.674 77.2677 134.902 75.9599C136.698 75.7599 138.36 74.9659 139.656 73.674C141.167 72.166 142.003 70.1582 142.005 68.0183ZM136.831 70.8421C136.076 71.5939 135.074 72.0081 134.004 72.0081C134.002 72.0081 134 72.0081 133.998 72.0081H127.998C126.892 72.0081 125.998 72.9041 125.998 74.008C125.998 75.1119 126.892 76.0079 127.998 76.0079L128.218 76.014C130.422 76.1319 132.118 78.0198 132.006 80.1437C131.802 82.3475 129.932 84.0535 127.658 84.0073H117.999C116.893 84.0073 115.999 84.9034 115.999 86.0073C115.999 87.1112 116.893 88.0072 117.999 88.0072C120.205 88.0072 121.999 89.8011 121.999 92.007C121.999 94.213 120.205 96.0069 117.999 96.0069H86.0009V68.3122C85.963 66.0983 87.6629 64.2046 89.7887 64.0044L90.0066 63.9983C92.2086 64.0002 93.9982 65.7922 94.0004 67.9921V68.0061C94.0004 69.11 94.8943 70.006 95.9982 70.006C96.0003 70.006 96.0003 70.006 96.0003 70.006C97.1042 70.006 97.9981 69.1121 98.0002 68.0082V68.0064V58.3129C97.9622 56.099 99.6621 54.2052 101.788 54.0051L102.004 53.999C104.208 54.0029 105.998 55.7947 106 57.9967V58.0086C106 59.1126 106.894 60.0086 107.998 60.0086C108 60.0086 108 60.0086 108 60.0086C109.104 60.0086 109.998 59.1147 110 58.0108V58.0086V48.0095L110.006 47.7876C110.122 45.5856 111.966 43.8899 114.134 43.9998C116.341 44.2059 118.039 46.0996 117.997 48.3515V50.0113C117.997 50.8213 118.487 51.5533 119.239 51.8612C119.985 52.1692 120.853 51.9932 121.421 51.4133L126.847 45.9077C126.994 45.7616 127.147 45.6236 127.305 45.4937C130.072 43.218 134.174 43.6138 136.43 46.3497C138.566 49.0534 138.32 52.9091 135.844 55.3351L130.584 60.5947C130.012 61.1666 129.84 62.0265 130.15 62.7747C130.458 63.5207 131.19 64.0086 131.998 64.0086H133.658C133.7 64.0086 133.73 64.0086 133.764 64.0086C135.948 64.0086 137.804 65.6926 137.999 67.7964L138.006 68.0164C138.003 69.0843 137.587 70.0881 136.831 70.8421Z" fill="black"/>
<path d="M126.586 52.589L70.5906 108.584L73.4188 111.412L129.414 55.4172L126.586 52.589Z" fill="black"/>
<path d="M117.995 56.019H113.995V66.0184H117.995V56.019Z" fill="black"/>
<path d="M105.996 66.0184H101.996V78.0177H105.996V66.0184Z" fill="black"/>
<path d="M93.9964 75.9976H89.9966V89.9965H93.9964V75.9976Z" fill="black"/>
<path d="M125.994 64.0185H115.995V68.0181H125.994V64.0185Z" fill="black"/>
<path d="M115.995 75.9976H103.996V79.9972H115.995V75.9976Z" fill="black"/>
<path d="M105.995 87.9969H91.9965V91.9967H105.995V87.9969Z" fill="black"/>
<path d="M77.3314 49.2515C77.3295 49.2475 77.3253 49.2435 77.3234 49.2395C74.5016 45.0137 68.766 43.8658 64.5423 46.6876C64.4103 46.7737 64.2803 46.8655 64.1324 46.9757L63.4124 47.5237L62.7205 47.0256C59.0607 43.6119 53.3071 43.75 49.8233 47.3657C48.1176 49.1336 47.2016 51.4614 47.2476 53.9193C47.2935 56.3772 48.2915 58.6689 50.0575 60.3728C50.5715 60.8687 51.1433 61.3046 51.7593 61.6686L53.4432 62.9846V64.0086C53.4432 69.5223 57.9289 74.008 63.4426 74.008C68.9563 74.008 73.442 69.5202 73.4399 64.0068V62.9828L75.2098 61.6009C79.0393 58.6949 79.9693 53.2693 77.3314 49.2515ZM72.7698 58.4329L70.2099 60.4328C69.726 60.8108 69.4419 61.3928 69.4419 62.0087V64.0086C69.4419 67.3164 66.7501 70.0081 63.4424 70.0081C60.1346 70.0081 57.4429 67.3164 57.4429 64.0086V62.0087C57.4429 61.3928 57.1609 60.8108 56.6748 60.4328L54.115 58.4329C54.039 58.3729 53.957 58.3189 53.8731 58.2709C53.4972 58.0569 53.1491 57.797 52.8372 57.4949C51.8373 56.5309 51.2732 55.235 51.2472 53.8471C51.2211 52.4591 51.7391 51.1433 52.7031 50.1433C53.721 49.0874 55.0829 48.5554 56.4468 48.5554C57.7466 48.5554 59.0485 49.0372 60.0566 50.0113C60.1246 50.0753 60.1965 50.1374 60.2746 50.1932L62.2745 51.6332C62.9865 52.1472 63.9524 52.1352 64.6524 51.6032L66.7604 50.0174C67.9203 49.2414 69.3102 48.9695 70.6782 49.2395C72.042 49.5114 73.22 50.2975 73.9939 51.4534C75.4777 53.7212 74.9497 56.777 72.7698 58.4329Z" fill="black"/>
<path d="M87.9968 41.9999H83.997V45.9995H87.9968V41.9999Z" fill="black"/>
<path d="M99.9959 105.996H95.9963V109.995H99.9959V105.996Z" fill="black"/>
<path d="M147.997 52.0093V56.0092C150.203 56.0092 151.997 57.8031 151.997 60.0088C151.997 62.2145 150.203 64.0086 147.997 64.0086V68.0082C152.408 68.0082 155.996 64.4204 155.996 60.0088C155.996 55.5972 152.408 52.0093 147.997 52.0093Z" fill="black"/>
<path d="M47.9994 70.018H43.9998V74.0178H47.9994V70.018Z" fill="black"/>
<path d="M44.0036 62.0186H40.004V66.0184H44.0036V62.0186Z" fill="black"/>
<path d="M117.999 104.004C113.587 104.004 109.999 107.592 109.999 112.003H113.999C113.999 109.797 115.793 108.003 117.999 108.003C120.205 108.003 121.999 109.797 121.999 112.003H125.998C125.998 107.592 122.41 104.004 117.999 104.004Z" fill="black"/>
<path d="M64.0025 86.0049H63.7506C62.8585 82.5591 59.7247 80.0054 56.0031 80.0054C52.2815 80.0054 49.1455 82.5591 48.2556 86.0049H48.0036C43.592 86.0049 40.0042 89.5927 40.0042 94.0043C40.0042 98.416 43.592 102.004 48.0036 102.004H64.0025C68.4142 102.004 72.002 98.416 72.002 94.0043C72.002 89.5927 68.4142 86.0049 64.0025 86.0049ZM64.0025 98.0061H48.0034C45.7975 98.0061 44.0036 96.2122 44.0036 94.0065C44.0036 91.8005 45.7975 90.0066 48.0034 90.0066H50.0033C51.1072 90.0066 52.0033 89.1106 52.0033 88.0067C52.0033 85.8008 53.7972 84.0071 56.0031 84.0071C58.209 84.0071 60.0029 85.801 60.0029 88.0067C60.0029 89.1106 60.8989 90.0066 62.0028 90.0066H64.0028C66.2087 90.0066 68.0026 91.8005 68.0026 94.0065C68.0021 96.2124 66.2082 98.0061 64.0025 98.0061Z" fill="black"/>
<path d="M60.0027 98.0042H52.0033C50.8994 98.0042 50.0033 98.9002 50.0033 100.004V108.004C50.0033 109.11 50.8994 110.003 52.0033 110.003H60.0027C61.1066 110.003 62.0026 109.11 62.0026 108.004V100.004C62.0026 98.9002 61.1066 98.0042 60.0027 98.0042ZM58.0028 106.004H54.0032V102.004H58.003V106.004H58.0028Z" fill="black"/>
<path d="M145.997 92.0047C142.689 92.0047 139.997 94.6965 139.997 98.0042C139.997 101.312 142.689 104.004 145.997 104.004C149.305 104.004 151.996 101.312 151.996 98.0042C151.996 94.6965 149.305 92.0047 145.997 92.0047ZM145.997 100.006C144.893 100.006 143.997 99.1081 143.997 98.0061C143.997 96.904 144.893 96.0061 145.997 96.0061C147.101 96.0061 147.997 96.9022 147.997 98.0061C147.997 99.1102 147.101 100.006 145.997 100.006Z" fill="black"/>
<path d="M145.997 84.0052C138.279 84.0052 131.998 90.2848 131.998 98.0042C131.998 105.724 138.279 112.003 145.997 112.003C153.714 112.003 159.996 105.724 159.996 98.0042C159.996 90.2848 153.714 84.0052 145.997 84.0052ZM145.997 108.005C140.483 108.005 135.997 103.518 135.997 98.0061C135.997 92.4924 140.483 88.0067 145.997 88.0067C151.51 88.0067 155.996 92.4924 155.996 98.0061C155.996 103.52 151.51 108.005 145.997 108.005Z" fill="black"/>
</svg>
