<svg width="200" height="200" viewBox="0 0 200 200" fill="none" xmlns="http://www.w3.org/2000/svg">
<path d="M158 59H136V43C136 41.8955 135.104 41 134 41H66C64.8955 41 64 41.8955 64 43V71H42C40.8955 71 40 71.8955 40 73V155C40 156.104 40.8955 157 42 157C43.1045 157 44 156.104 44 155V75H64V157C64 158.104 64.8955 159 66 159H134C135.104 159 136 158.104 136 157V63H156V155C156 156.104 156.896 157 158 157C159.104 157 160 156.104 160 155V61C160 59.8955 159.104 59 158 59ZM98 155H90V137H98V155ZM110 155H102V137H110V155ZM132 155H114V135C114 133.896 113.104 133 112 133H88C86.8955 133 86 133.896 86 135V155H68V45H132V155Z" fill="black"/>
<path d="M86 49H74C72.8955 49 72 49.8955 72 51V63C72 64.1045 72.8955 65 74 65H86C87.1045 65 88 64.1045 88 63V51C88 49.8955 87.1045 49 86 49ZM84 61H76V53H84V61Z" fill="black"/>
<path d="M106 49H94C92.8955 49 92 49.8955 92 51V63C92 64.1045 92.8955 65 94 65H106C107.104 65 108 64.1045 108 63V51C108 49.8955 107.104 49 106 49ZM104 61H96V53H104V61Z" fill="black"/>
<path d="M126 49H114C112.895 49 112 49.8955 112 51V63C112 64.1045 112.895 65 114 65H126C127.104 65 128 64.1045 128 63V51C128 49.8955 127.104 49 126 49ZM124 61H116V53H124V61Z" fill="black"/>
<path d="M86 69H74C72.8955 69 72 69.8955 72 71V83C72 84.1045 72.8955 85 74 85H86C87.1045 85 88 84.1045 88 83V71C88 69.8955 87.1045 69 86 69ZM84 81H76V73H84V81Z" fill="black"/>
<path d="M106 69H94C92.8955 69 92 69.8955 92 71V83C92 84.1045 92.8955 85 94 85H106C107.104 85 108 84.1045 108 83V71C108 69.8955 107.104 69 106 69ZM104 81H96V73H104V81Z" fill="black"/>
<path d="M126 69H114C112.895 69 112 69.8955 112 71V83C112 84.1045 112.895 85 114 85H126C127.104 85 128 84.1045 128 83V71C128 69.8955 127.104 69 126 69ZM124 81H116V73H124V81Z" fill="black"/>
<path d="M86 89H74C72.8955 89 72 89.8955 72 91V103C72 104.104 72.8955 105 74 105H86C87.1045 105 88 104.104 88 103V91C88 89.8955 87.1045 89 86 89ZM84 101H76V93H84V101Z" fill="black"/>
<path d="M106 89H94C92.8955 89 92 89.8955 92 91V103C92 104.104 92.8955 105 94 105H106C107.104 105 108 104.104 108 103V91C108 89.8955 107.104 89 106 89ZM104 101H96V93H104V101Z" fill="black"/>
<path d="M126 89H114C112.895 89 112 89.8955 112 91V103C112 104.104 112.895 105 114 105H126C127.104 105 128 104.104 128 103V91C128 89.8955 127.104 89 126 89ZM124 101H116V93H124V101Z" fill="black"/>
<path d="M86 109H74C72.8955 109 72 109.895 72 111V123C72 124.104 72.8955 125 74 125H86C87.1045 125 88 124.104 88 123V111C88 109.895 87.1045 109 86 109ZM84 121H76V113H84V121Z" fill="black"/>
<path d="M106 109H94C92.8955 109 92 109.895 92 111V123C92 124.104 92.8955 125 94 125H106C107.104 125 108 124.104 108 123V111C108 109.895 107.104 109 106 109ZM104 121H96V113H104V121Z" fill="black"/>
<path d="M126 109H114C112.895 109 112 109.895 112 111V123C112 124.104 112.895 125 114 125H126C127.104 125 128 124.104 128 123V111C128 109.895 127.104 109 126 109ZM124 121H116V113H124V121Z" fill="black"/>
<path d="M52 79H50C48.8955 79 48 79.8955 48 81V83C48 84.1045 48.8955 85 50 85H52C53.1045 85 54 84.1045 54 83V81C54 79.8955 53.1045 79 52 79Z" fill="black"/>
<path d="M60 79H58C56.8955 79 56 79.8955 56 81V83C56 84.1045 56.8955 85 58 85H60C61.1045 85 62 84.1045 62 83V81C62 79.8955 61.1045 79 60 79Z" fill="black"/>
<path d="M52 87H50C48.8955 87 48 87.8955 48 89V91C48 92.1045 48.8955 93 50 93H52C53.1045 93 54 92.1045 54 91V89C54 87.8955 53.1045 87 52 87Z" fill="black"/>
<path d="M60 87H58C56.8955 87 56 87.8955 56 89V91C56 92.1045 56.8955 93 58 93H60C61.1045 93 62 92.1045 62 91V89C62 87.8955 61.1045 87 60 87Z" fill="black"/>
<path d="M52 95H50C48.8955 95 48 95.8955 48 97V99C48 100.104 48.8955 101 50 101H52C53.1045 101 54 100.104 54 99V97C54 95.8955 53.1045 95 52 95Z" fill="black"/>
<path d="M60 95H58C56.8955 95 56 95.8955 56 97V99C56 100.104 56.8955 101 58 101H60C61.1045 101 62 100.104 62 99V97C62 95.8955 61.1045 95 60 95Z" fill="black"/>
<path d="M52 103H50C48.8955 103 48 103.896 48 105V107C48 108.105 48.8955 109 50 109H52C53.1045 109 54 108.105 54 107V105C54 103.896 53.1045 103 52 103Z" fill="black"/>
<path d="M60 103H58C56.8955 103 56 103.896 56 105V107C56 108.105 56.8955 109 58 109H60C61.1045 109 62 108.105 62 107V105C62 103.896 61.1045 103 60 103Z" fill="black"/>
<path d="M52 111H50C48.8955 111 48 111.895 48 113V115C48 116.104 48.8955 117 50 117H52C53.1045 117 54 116.104 54 115V113C54 111.895 53.1045 111 52 111Z" fill="black"/>
<path d="M60 111H58C56.8955 111 56 111.895 56 113V115C56 116.104 56.8955 117 58 117H60C61.1045 117 62 116.104 62 115V113C62 111.895 61.1045 111 60 111Z" fill="black"/>
<path d="M52 119H50C48.8955 119 48 119.895 48 121V123C48 124.104 48.8955 125 50 125H52C53.1045 125 54 124.104 54 123V121C54 119.895 53.1045 119 52 119Z" fill="black"/>
<path d="M60 119H58C56.8955 119 56 119.895 56 121V123C56 124.104 56.8955 125 58 125H60C61.1045 125 62 124.104 62 123V121C62 119.895 61.1045 119 60 119Z" fill="black"/>
<path d="M52 127H50C48.8955 127 48 127.895 48 129V131C48 132.104 48.8955 133 50 133H52C53.1045 133 54 132.104 54 131V129C54 127.895 53.1045 127 52 127Z" fill="black"/>
<path d="M60 127H58C56.8955 127 56 127.895 56 129V131C56 132.104 56.8955 133 58 133H60C61.1045 133 62 132.104 62 131V129C62 127.895 61.1045 127 60 127Z" fill="black"/>
<path d="M52 135H50C48.8955 135 48 135.895 48 137V139C48 140.104 48.8955 141 50 141H52C53.1045 141 54 140.104 54 139V137C54 135.895 53.1045 135 52 135Z" fill="black"/>
<path d="M60 135H58C56.8955 135 56 135.895 56 137V139C56 140.104 56.8955 141 58 141H60C61.1045 141 62 140.104 62 139V137C62 135.895 61.1045 135 60 135Z" fill="black"/>
<path d="M52 143H50C48.8955 143 48 143.895 48 145V147C48 148.104 48.8955 149 50 149H52C53.1045 149 54 148.104 54 147V145C54 143.895 53.1045 143 52 143Z" fill="black"/>
<path d="M60 143H58C56.8955 143 56 143.895 56 145V147C56 148.104 56.8955 149 58 149H60C61.1045 149 62 148.104 62 147V145C62 143.895 61.1045 143 60 143Z" fill="black"/>
<path d="M150 67H142C140.895 67 140 67.8955 140 69V77C140 78.1045 140.895 79 142 79H150C151.104 79 152 78.1045 152 77V69C152 67.8955 151.104 67 150 67ZM148 75H144V71H148V75Z" fill="black"/>
<path d="M150 83H142C140.895 83 140 83.8955 140 85V93C140 94.1045 140.895 95 142 95H150C151.104 95 152 94.1045 152 93V85C152 83.8955 151.104 83 150 83ZM148 91H144V87H148V91Z" fill="black"/>
<path d="M150 99H142C140.895 99 140 99.8955 140 101V109C140 110.104 140.895 111 142 111H150C151.104 111 152 110.104 152 109V101C152 99.8955 151.104 99 150 99ZM148 107H144V103H148V107Z" fill="black"/>
<path d="M150 115H142C140.895 115 140 115.895 140 117V125C140 126.104 140.895 127 142 127H150C151.104 127 152 126.104 152 125V117C152 115.895 151.104 115 150 115ZM148 123H144V119H148V123Z" fill="black"/>
<path d="M150 131H142C140.895 131 140 131.895 140 133V141C140 142.104 140.895 143 142 143H150C151.104 143 152 142.104 152 141V133C152 131.895 151.104 131 150 131ZM148 139H144V135H148V139Z" fill="black"/>
</svg>
