<svg width="200" height="200" viewBox="0 0 200 200" fill="none" xmlns="http://www.w3.org/2000/svg">
<path d="M119 59H97V43C97 41.8955 96.1045 41 95 41H27C25.8955 41 25 41.8955 25 43V71H3C1.8955 71 1 71.8955 1 73V155C1 156.105 1.8955 157 3 157C4.1045 157 5 156.105 5 155V75H25V157C25 158.105 25.8955 159 27 159H95C96.1045 159 97 158.105 97 157V63H117V155C117 156.105 117.895 157 119 157C120.105 157 121 156.105 121 155V61C121 59.8955 120.105 59 119 59ZM59 155H51V137H59V155ZM71 155H63V137H71V155ZM93 155H75V135C75 133.895 74.1045 133 73 133H49C47.8955 133 47 133.895 47 135V155H29V45H93V155Z" fill="black"/>
<path d="M47 49H35C33.8955 49 33 49.8955 33 51V63C33 64.1045 33.8955 65 35 65H47C48.1045 65 49 64.1045 49 63V51C49 49.8955 48.1045 49 47 49ZM45 61H37V53H45V61Z" fill="black"/>
<path d="M67 49H55C53.8955 49 53 49.8955 53 51V63C53 64.1045 53.8955 65 55 65H67C68.1045 65 69 64.1045 69 63V51C69 49.8955 68.1045 49 67 49ZM65 61H57V53H65V61Z" fill="black"/>
<path d="M87 49H75C73.8955 49 73 49.8955 73 51V63C73 64.1045 73.8955 65 75 65H87C88.1045 65 89 64.1045 89 63V51C89 49.8955 88.1045 49 87 49ZM85 61H77V53H85V61Z" fill="black"/>
<path d="M47 69H35C33.8955 69 33 69.8955 33 71V83C33 84.1045 33.8955 85 35 85H47C48.1045 85 49 84.1045 49 83V71C49 69.8955 48.1045 69 47 69ZM45 81H37V73H45V81Z" fill="black"/>
<path d="M67 69H55C53.8955 69 53 69.8955 53 71V83C53 84.1045 53.8955 85 55 85H67C68.1045 85 69 84.1045 69 83V71C69 69.8955 68.1045 69 67 69ZM65 81H57V73H65V81Z" fill="black"/>
<path d="M87 69H75C73.8955 69 73 69.8955 73 71V83C73 84.1045 73.8955 85 75 85H87C88.1045 85 89 84.1045 89 83V71C89 69.8955 88.1045 69 87 69ZM85 81H77V73H85V81Z" fill="black"/>
<path d="M47 89H35C33.8955 89 33 89.8955 33 91V103C33 104.105 33.8955 105 35 105H47C48.1045 105 49 104.105 49 103V91C49 89.8955 48.1045 89 47 89ZM45 101H37V93H45V101Z" fill="black"/>
<path d="M67 89H55C53.8955 89 53 89.8955 53 91V103C53 104.105 53.8955 105 55 105H67C68.1045 105 69 104.105 69 103V91C69 89.8955 68.1045 89 67 89ZM65 101H57V93H65V101Z" fill="black"/>
<path d="M87 89H75C73.8955 89 73 89.8955 73 91V103C73 104.105 73.8955 105 75 105H87C88.1045 105 89 104.105 89 103V91C89 89.8955 88.1045 89 87 89ZM85 101H77V93H85V101Z" fill="black"/>
<path d="M47 109H35C33.8955 109 33 109.895 33 111V123C33 124.105 33.8955 125 35 125H47C48.1045 125 49 124.105 49 123V111C49 109.895 48.1045 109 47 109ZM45 121H37V113H45V121Z" fill="black"/>
<path d="M67 109H55C53.8955 109 53 109.895 53 111V123C53 124.105 53.8955 125 55 125H67C68.1045 125 69 124.105 69 123V111C69 109.895 68.1045 109 67 109ZM65 121H57V113H65V121Z" fill="black"/>
<path d="M87 109H75C73.8955 109 73 109.895 73 111V123C73 124.105 73.8955 125 75 125H87C88.1045 125 89 124.105 89 123V111C89 109.895 88.1045 109 87 109ZM85 121H77V113H85V121Z" fill="black"/>
<path d="M13 79H11C9.8955 79 9 79.8955 9 81V83C9 84.1045 9.8955 85 11 85H13C14.1045 85 15 84.1045 15 83V81C15 79.8955 14.1045 79 13 79Z" fill="black"/>
<path d="M21 79H19C17.8955 79 17 79.8955 17 81V83C17 84.1045 17.8955 85 19 85H21C22.1045 85 23 84.1045 23 83V81C23 79.8955 22.1045 79 21 79Z" fill="black"/>
<path d="M13 87H11C9.8955 87 9 87.8955 9 89V91C9 92.1045 9.8955 93 11 93H13C14.1045 93 15 92.1045 15 91V89C15 87.8955 14.1045 87 13 87Z" fill="black"/>
<path d="M21 87H19C17.8955 87 17 87.8955 17 89V91C17 92.1045 17.8955 93 19 93H21C22.1045 93 23 92.1045 23 91V89C23 87.8955 22.1045 87 21 87Z" fill="black"/>
<path d="M13 95H11C9.8955 95 9 95.8955 9 97V99C9 100.105 9.8955 101 11 101H13C14.1045 101 15 100.105 15 99V97C15 95.8955 14.1045 95 13 95Z" fill="black"/>
<path d="M21 95H19C17.8955 95 17 95.8955 17 97V99C17 100.105 17.8955 101 19 101H21C22.1045 101 23 100.105 23 99V97C23 95.8955 22.1045 95 21 95Z" fill="black"/>
<path d="M13 103H11C9.8955 103 9 103.896 9 105V107C9 108.105 9.8955 109 11 109H13C14.1045 109 15 108.105 15 107V105C15 103.896 14.1045 103 13 103Z" fill="black"/>
<path d="M21 103H19C17.8955 103 17 103.896 17 105V107C17 108.105 17.8955 109 19 109H21C22.1045 109 23 108.105 23 107V105C23 103.896 22.1045 103 21 103Z" fill="black"/>
<path d="M13 111H11C9.8955 111 9 111.895 9 113V115C9 116.105 9.8955 117 11 117H13C14.1045 117 15 116.105 15 115V113C15 111.895 14.1045 111 13 111Z" fill="black"/>
<path d="M21 111H19C17.8955 111 17 111.895 17 113V115C17 116.105 17.8955 117 19 117H21C22.1045 117 23 116.105 23 115V113C23 111.895 22.1045 111 21 111Z" fill="black"/>
<path d="M13 119H11C9.8955 119 9 119.895 9 121V123C9 124.105 9.8955 125 11 125H13C14.1045 125 15 124.105 15 123V121C15 119.895 14.1045 119 13 119Z" fill="black"/>
<path d="M21 119H19C17.8955 119 17 119.895 17 121V123C17 124.105 17.8955 125 19 125H21C22.1045 125 23 124.105 23 123V121C23 119.895 22.1045 119 21 119Z" fill="black"/>
<path d="M13 127H11C9.8955 127 9 127.895 9 129V131C9 132.105 9.8955 133 11 133H13C14.1045 133 15 132.105 15 131V129C15 127.895 14.1045 127 13 127Z" fill="black"/>
<path d="M21 127H19C17.8955 127 17 127.895 17 129V131C17 132.105 17.8955 133 19 133H21C22.1045 133 23 132.105 23 131V129C23 127.895 22.1045 127 21 127Z" fill="black"/>
<path d="M13 135H11C9.8955 135 9 135.895 9 137V139C9 140.105 9.8955 141 11 141H13C14.1045 141 15 140.105 15 139V137C15 135.895 14.1045 135 13 135Z" fill="black"/>
<path d="M21 135H19C17.8955 135 17 135.895 17 137V139C17 140.105 17.8955 141 19 141H21C22.1045 141 23 140.105 23 139V137C23 135.895 22.1045 135 21 135Z" fill="black"/>
<path d="M13 143H11C9.8955 143 9 143.895 9 145V147C9 148.105 9.8955 149 11 149H13C14.1045 149 15 148.105 15 147V145C15 143.895 14.1045 143 13 143Z" fill="black"/>
<path d="M21 143H19C17.8955 143 17 143.895 17 145V147C17 148.105 17.8955 149 19 149H21C22.1045 149 23 148.105 23 147V145C23 143.895 22.1045 143 21 143Z" fill="black"/>
<path d="M111 67H103C101.895 67 101 67.8955 101 69V77C101 78.1045 101.895 79 103 79H111C112.105 79 113 78.1045 113 77V69C113 67.8955 112.105 67 111 67ZM109 75H105V71H109V75Z" fill="black"/>
<path d="M111 83H103C101.895 83 101 83.8955 101 85V93C101 94.1045 101.895 95 103 95H111C112.105 95 113 94.1045 113 93V85C113 83.8955 112.105 83 111 83ZM109 91H105V87H109V91Z" fill="black"/>
<path d="M111 99H103C101.895 99 101 99.8955 101 101V109C101 110.105 101.895 111 103 111H111C112.105 111 113 110.105 113 109V101C113 99.8955 112.105 99 111 99ZM109 107H105V103H109V107Z" fill="black"/>
<path d="M111 115H103C101.895 115 101 115.895 101 117V125C101 126.105 101.895 127 103 127H111C112.105 127 113 126.105 113 125V117C113 115.895 112.105 115 111 115ZM109 123H105V119H109V123Z" fill="black"/>
<path d="M111 131H103C101.895 131 101 131.895 101 133V141C101 142.105 101.895 143 103 143H111C112.105 143 113 142.105 113 141V133C113 131.895 112.105 131 111 131ZM109 139H105V135H109V139Z" fill="black"/>
</svg>
