<svg width="200" height="200" viewBox="0 0 200 200" fill="none" xmlns="http://www.w3.org/2000/svg">
<path fill-rule="evenodd" clip-rule="evenodd" d="M100 193C151.362 193 193 151.362 193 100C193 48.6375 151.362 7 100 7C48.6375 7 7 48.6375 7 100C7 151.362 48.6375 193 100 193ZM96.4681 115.865V94.1136H103.12V115.865H96.4681ZM95.8992 87.4614C95.8992 86.9362 96.0013 86.4402 96.2055 85.9734C96.4097 85.4774 96.6869 85.0544 97.037 84.7042C97.3872 84.3541 97.7956 84.0769 98.2625 83.8727C98.7293 83.6685 99.2253 83.5664 99.7505 83.5664C100.859 83.5664 101.793 83.9456 102.551 84.7042C103.31 85.4628 103.689 86.3819 103.689 87.4614C103.689 88.5409 103.31 89.46 102.551 90.2186C101.793 90.9772 100.859 91.3565 99.7505 91.3565C99.2253 91.3565 98.7293 91.2544 98.2625 91.0501C97.7956 90.8459 97.3872 90.5687 97.037 90.2186C96.6869 89.8685 96.4097 89.46 96.2055 88.9932C96.0013 88.4972 95.8992 87.9866 95.8992 87.4614ZM63.474 97.7024C62.657 98.4026 61.5921 98.7527 60.2791 98.7527H56.2528V90.8313H60.2791C61.5921 90.8313 62.657 91.1814 63.474 91.8816C64.2909 92.5819 64.6994 93.5593 64.6994 94.8139C64.6994 96.0393 64.2909 97.0021 63.474 97.7024ZM56.209 115.865V104.705H60.9794C62.5549 104.705 63.9845 104.471 65.2683 104.004C66.5812 103.508 67.7045 102.823 68.6382 101.948C69.601 101.072 70.3304 100.022 70.8264 98.7965C71.3516 97.5711 71.6142 96.2289 71.6142 94.7701C71.6142 93.3405 71.3516 92.0129 70.8264 90.7875C70.3304 89.5621 69.601 88.5118 68.6382 87.6365C67.7045 86.7612 66.5812 86.0755 65.2683 85.5795C63.9845 85.0835 62.5549 84.8355 60.9794 84.8355H49.2942V115.865H56.209ZM84.8773 110.088C84.2938 110.292 83.6811 110.394 83.0392 110.394C82.4265 110.394 81.8138 110.292 81.201 110.088C80.6175 109.854 80.0923 109.519 79.6255 109.081C79.1879 108.614 78.8232 108.045 78.5314 107.374C78.2688 106.674 78.1375 105.872 78.1375 104.967C78.1375 104.063 78.2688 103.275 78.5314 102.604C78.8232 101.904 79.1879 101.335 79.6255 100.897C80.0923 100.46 80.6175 100.139 81.201 99.9344C81.8138 99.7009 82.4265 99.5842 83.0392 99.5842C83.6811 99.5842 84.2938 99.7009 84.8773 99.9344C85.4608 100.139 85.9714 100.46 86.409 100.897C86.8759 101.335 87.2406 101.904 87.5032 102.604C87.7949 103.275 87.9408 104.063 87.9408 104.967C87.9408 105.901 87.7949 106.703 87.5032 107.374C87.2406 108.045 86.8759 108.614 86.409 109.081C85.9714 109.519 85.4608 109.854 84.8773 110.088ZM87.5907 94.3325C86.1902 93.7489 84.673 93.4572 83.0392 93.4572C81.4053 93.4572 79.8881 93.7489 78.4876 94.3325C77.0872 94.8868 75.8618 95.6746 74.8114 96.6958C73.7902 97.7169 72.9733 98.9278 72.3606 100.328C71.7771 101.729 71.4853 103.275 71.4853 104.967C71.4853 106.66 71.7771 108.22 72.3606 109.65C72.9733 111.051 73.7902 112.261 74.8114 113.283C75.8618 114.304 77.0872 115.106 78.4876 115.69C79.8881 116.244 81.4053 116.521 83.0392 116.521C84.673 116.521 86.1902 116.244 87.5907 115.69C88.9912 115.106 90.202 114.304 91.2232 113.283C92.2735 112.261 93.0905 111.051 93.674 109.65C94.2867 108.22 94.5931 106.66 94.5931 104.967C94.5931 103.275 94.2867 101.729 93.674 100.328C93.0905 98.9278 92.2735 97.7169 91.2232 96.6958C90.202 95.6746 88.9912 94.8868 87.5907 94.3325ZM105.915 115.865H112.567V103.392C112.567 102.283 112.888 101.379 113.53 100.678C114.172 99.9489 115.047 99.5842 116.156 99.5842C117.381 99.5842 118.271 99.9489 118.826 100.678C119.409 101.379 119.701 102.268 119.701 103.348V115.865H126.353V102.21C126.353 101.014 126.193 99.8906 125.872 98.8402C125.58 97.7899 125.099 96.8708 124.428 96.0831C123.786 95.2953 122.969 94.6826 121.977 94.2449C120.985 93.7781 119.803 93.5447 118.432 93.5447C117.877 93.5447 117.294 93.6176 116.681 93.7635C116.098 93.8802 115.529 94.0699 114.974 94.3325C114.449 94.5659 113.953 94.8722 113.486 95.2515C113.02 95.6308 112.64 96.0831 112.349 96.6082V94.1136H105.915V115.865ZM137.836 94.1136H142.082V99.9344H137.836V108.075C137.836 108.979 138.055 109.592 138.493 109.913C138.93 110.204 139.514 110.35 140.243 110.35C140.594 110.35 140.914 110.336 141.206 110.307C141.527 110.248 141.79 110.19 141.994 110.132V115.646C141.848 115.704 141.498 115.821 140.944 115.996C140.389 116.171 139.587 116.259 138.537 116.259C136.261 116.259 134.481 115.646 133.197 114.42C131.914 113.166 131.272 111.444 131.272 109.256V99.9344H127.42V94.1136H128.514C129.652 94.1136 130.498 93.7781 131.053 93.1071C131.607 92.436 131.884 91.5899 131.884 90.5687V87.7678H137.836V94.1136ZM143.604 110.044C143.371 110.569 143.254 111.138 143.254 111.751C143.254 112.364 143.371 112.947 143.604 113.501C143.837 114.027 144.158 114.493 144.567 114.902C144.975 115.31 145.442 115.631 145.967 115.865C146.522 116.127 147.105 116.259 147.718 116.259C148.331 116.259 148.9 116.127 149.425 115.865C149.979 115.631 150.461 115.31 150.869 114.902C151.307 114.493 151.642 114.027 151.876 113.501C152.109 112.947 152.226 112.364 152.226 111.751C152.226 111.138 152.109 110.569 151.876 110.044C151.642 109.49 151.307 109.008 150.869 108.6C150.461 108.191 149.979 107.87 149.425 107.637C148.9 107.404 148.331 107.287 147.718 107.287C147.105 107.287 146.522 107.404 145.967 107.637C145.442 107.87 144.975 108.191 144.567 108.6C144.158 109.008 143.837 109.49 143.604 110.044Z" fill="white"/>
</svg>
