<svg width="450" height="450" viewBox="0 0 450 450" fill="none" xmlns="http://www.w3.org/2000/svg">
<path d="M173.404 327.804L177.389 339.179L167.711 331.785L157.464 339.179L161.449 327.236L151.772 320.411H163.726L167.711 309.036L171.127 320.411H183.081L173.404 327.804Z" fill="#FFFF00"/>
<path d="M230.9 342.591L234.885 354.534L224.638 347.141L214.96 354.534L218.376 342.591L208.699 335.766H220.653L224.638 324.392L228.623 335.766L240.577 335.198L230.9 342.591Z" fill="#FFFF00"/>
<path d="M329.952 285.718L333.937 297.662L323.69 289.7L314.013 297.093L317.428 285.718L307.751 278.894L319.705 278.325L323.69 266.95L327.675 278.325H339.63L329.952 285.718Z" fill="#FFFF00"/>
<path d="M287.827 327.804L291.811 339.179L282.134 331.785L271.887 339.179L275.872 327.236L266.194 320.411H278.149L282.134 309.036L285.55 320.411H297.504L287.827 327.804Z" fill="#FFFF00"/>
<path d="M131.848 285.718L135.832 297.662L125.586 289.7L115.908 297.093L119.324 285.718L109.646 278.894L121.601 278.325L125.586 266.95L129.001 278.325H141.525L131.848 285.718Z" fill="#FFFF00"/>
<path d="M116.477 228.846L120.462 240.22L110.215 232.827L99.9686 240.22L103.953 228.277L94.2759 221.452H106.231L110.215 210.078L113.631 221.452H126.155L116.477 228.846Z" fill="#FFFF00"/>
<path d="M173.404 129.887L177.389 141.831L167.711 133.868L157.464 141.262L161.449 129.887L151.772 122.494H163.726L167.711 111.119L171.127 122.494H183.081L173.404 129.887Z" fill="#FFFF00"/>
<path d="M131.848 171.404L135.832 183.348L125.586 175.385L115.908 182.779L119.324 171.404L109.646 164.011H121.601L125.586 152.636L129.001 164.011H141.525L131.848 171.404Z" fill="#FFFF00"/>
<path d="M230.9 113.963L234.885 125.906L224.638 117.944L214.96 125.337L218.376 113.963L208.699 106.569H220.653L224.638 95.1948L228.623 106.569H240.577L230.9 113.963Z" fill="#FFFF00"/>
<path d="M287.827 129.887L291.811 141.831L282.134 133.868L271.887 141.262L275.872 129.887L266.194 122.494H278.149L282.134 111.119L285.55 122.494H297.504L287.827 129.887Z" fill="#FFFF00"/>
<path d="M345.892 228.846L349.307 240.22L339.63 232.827L329.383 240.22L333.368 228.277L323.69 221.452H335.645L339.63 210.078L343.045 221.452H355L345.892 228.846Z" fill="#FFFF00"/>
<path d="M329.952 171.404L333.937 183.348L323.69 175.385L314.013 182.779L317.428 171.404L307.751 164.011H319.705L323.69 152.636L327.675 164.011H339.63L329.952 171.404Z" fill="#FFFF00"/>
</svg>
