<svg width="1787" height="1787" viewBox="0 0 1787 1787" fill="none" xmlns="http://www.w3.org/2000/svg">
<g clip-path="url(#clip0_230_2)">
<path fill-rule="evenodd" clip-rule="evenodd" d="M865 1816V1284H922V1816H865Z" fill="url(#paint0_linear_230_2)"/>
<path d="M905.497 225.307C922.988 219.809 941.702 219.013 959.853 220.967C966.959 221.666 973.735 224.11 980.399 226.586C1000.59 234.351 1018.76 247.678 1031.34 265.386C1034.51 269.213 1036.55 273.802 1039.46 277.789C1054.97 280.056 1069.96 285.603 1082.97 294.429C1087.13 291.953 1091.57 289.855 1096.41 289.083C1115.36 285.241 1135.55 281.093 1154.45 287.331C1173.85 292.789 1192.78 302.122 1206.62 317.081C1212.6 323.882 1218.61 330.787 1222.97 338.785C1232.4 354.05 1237.37 371.855 1238.2 389.733C1251.25 398.351 1262.56 409.653 1270.18 423.389C1275.01 423.309 1279.92 423.18 1284.61 424.579C1301.29 428.735 1318.75 432.931 1332.57 443.767C1345.31 454.064 1356.41 466.475 1364.79 480.598C1380.12 509.97 1382.19 546.225 1368.99 576.769C1372.02 582.589 1375.31 588.304 1377.4 594.574C1380.96 602.966 1381.98 612.09 1383.33 621.022C1388.41 623.385 1393.52 625.821 1397.47 629.92C1412.63 642.058 1427.88 655.964 1434.16 674.935C1445.29 700.739 1446.7 730.884 1436.23 757.136C1431.73 771.38 1422.99 783.896 1412.95 794.819C1410.61 797.48 1407.45 799.506 1405.6 802.552C1405.43 810.904 1406.29 819.328 1404.85 827.625C1403.58 834.562 1401.57 841.339 1399.17 847.962C1405.56 854.714 1408.67 863.565 1412.47 871.876C1418.45 885.14 1422.91 899.569 1421.94 914.286C1421.66 930.283 1418.37 946.216 1411.86 960.853C1399.95 984.912 1380.02 1005.48 1355 1015.76C1350.59 1017.89 1345.91 1019.2 1341.27 1020.68C1337.58 1027.04 1335.18 1034.18 1331.12 1040.38C1326.51 1047.42 1320.85 1053.7 1315.11 1059.82C1315.96 1063.1 1316.93 1066.41 1316.93 1069.85C1317.03 1088.24 1316.94 1107.38 1309.3 1124.5C1300.98 1141.63 1289.42 1157.36 1274.51 1169.3C1267.85 1173.96 1260.76 1177.99 1253.48 1181.58C1241.61 1186.18 1229.37 1190.59 1216.54 1191.24C1206.92 1191.86 1197.26 1191.36 1187.73 1190C1183.2 1193.36 1179.11 1197.27 1174.49 1200.51C1166.34 1206.51 1156.81 1210.14 1147.49 1213.84C1145.74 1224.98 1139.51 1234.61 1134.25 1244.34C1130 1252.4 1124.24 1259.61 1117.94 1266.15C1105.94 1276.67 1092.24 1285.45 1077.11 1290.69C1070.79 1292.83 1064.44 1295.18 1057.74 1295.71C1038.98 1297.78 1019.47 1296.66 1001.85 1289.51C992.522 1286.37 984.137 1281.06 975.93 1275.74C961.026 1280.93 944.998 1281.44 929.418 1279.99C925.013 1287.6 917.248 1292.06 910.504 1297.33C898.575 1305.97 885.616 1314.23 870.827 1316.69C860.642 1318.65 850.215 1319.34 839.838 1319.05C831.333 1318.61 822.684 1318.17 814.604 1315.22C799.669 1310.42 785.659 1302.85 773.575 1292.83C763.374 1283.91 754.725 1273.25 748.325 1261.29C732.819 1259.19 717.707 1253.67 704.812 1244.73C700.463 1247.03 695.986 1249.22 691.067 1249.99C671.493 1254.16 650.513 1258.1 631.085 1251.16C616.583 1247.05 602.806 1240.45 590.804 1231.31C577.517 1220.13 566.882 1206.05 559.124 1190.55C553.513 1177.6 549.984 1163.78 549.438 1149.64C536.399 1140.82 525.266 1129.28 517.204 1115.75C513.779 1115.69 510.331 1115.88 506.946 1115.38C495.492 1113.15 484.269 1109.82 473.346 1105.7C464.664 1102.4 456.61 1097.46 449.913 1091.01C433.017 1076.28 418.844 1057.26 413.773 1035.09C408.074 1014.35 408.709 992.036 415.148 971.546C416.137 968.564 417.576 965.726 418.235 962.655C416.603 957.905 413.685 953.716 411.941 949.006C407.439 939.215 405.502 928.484 404.352 917.826C400.896 916.403 397.351 915.02 394.393 912.697C387.19 907.271 380.406 901.298 373.903 895.053C368.075 888.533 361.54 882.344 357.794 874.314C349.474 857.361 344.113 838.703 344 819.734C344.514 795.249 352.874 770.813 368.268 751.673C372.368 746.295 377.303 741.641 382.078 736.866C380.728 721.239 382.85 705.395 388.356 690.708C383.541 686.151 380.471 680.258 378.172 674.117C372.738 662.919 368.244 651.119 366.034 638.829C364.41 617.977 367.497 596.547 376.009 577.368C384.498 560.374 397.287 545.769 412.384 534.33C422.938 527.569 434.16 521.532 446.427 518.526C452.287 503.727 461.161 490.223 472.639 479.153C471.144 474.925 470.091 470.504 470.485 465.995C471.152 447.643 470.622 428.046 479.898 411.526C490.099 391.413 505.01 372.869 525.204 362.162C535.766 355.876 547.696 352.323 559.545 349.349C572.881 346.905 586.659 347.251 600.051 349.156C604.167 345.675 608.315 342.243 612.575 338.947C620.911 332.685 630.694 328.923 640.323 325.185C640.87 320.885 641.754 316.552 643.932 312.75C652.405 296.062 660.894 278.096 676.722 267.09C690.379 256.295 706.367 248.658 723.24 244.438C747.981 239.952 774.293 242.822 796.783 254.381C801.879 256.849 806.445 260.225 811.284 263.103C815.279 262.62 819.073 261.085 823.012 260.305C834.596 257.934 846.525 258.135 858.253 259.108C860.407 256.157 862.465 253.047 865.367 250.764C877.73 240.844 890.68 231.238 905.495 225.306L905.497 225.307ZM918.292 258.721C910.39 261.671 903.517 266.76 896.604 271.462C902.907 275.144 908.775 279.517 914.675 283.809C922.512 290.69 929.642 298.423 935.646 306.977C937.656 309.742 938.572 313.086 939.352 316.365C943.685 310.409 949.384 305.787 955.18 301.342C967.205 290.763 981.995 283.745 997.567 280.185C987.358 268.634 973.252 260.925 958.493 256.882C945.205 254.438 931.315 255.226 918.293 258.723L918.292 258.721ZM694.852 298.151C688.47 304.035 684.563 311.953 680.496 319.493C698.783 321.197 717.063 325.972 732.721 335.819C735.085 337.298 736.66 339.645 738.139 341.952C739.249 333.046 744.208 325.417 747.657 317.322C753.662 303.922 763.742 292.838 775.012 283.617C764.907 279.638 753.927 277.668 743.082 278.006C725.116 278.191 708.436 286.961 694.851 298.15L694.852 298.151ZM828.24 295.706C819.357 297.7 811.367 302.242 803.441 306.55C798.015 310.529 792.911 315.031 788.264 319.902C782.734 325.682 779.51 333.101 776.392 340.352C784.125 341.156 791.857 342.249 799.398 344.234C811.866 347.964 823.633 353.76 834.462 360.954C841.544 352.136 849.598 344.025 859.084 337.787C871.23 328.39 886.149 323.527 900.957 320.191C894.655 313.109 887.107 307.241 878.915 302.506C863.353 294.902 845.266 291.59 828.241 295.706L828.24 295.706ZM996.719 317.603C988.053 320.393 980.786 326.108 974.066 332.064C992.546 341.871 1007.04 357.843 1017.52 375.738C1041.39 363.793 1069.56 360.851 1095.33 367.86C1091.17 355.473 1085.71 342.757 1075.46 334.163C1067.62 326.06 1057.86 319.927 1047.25 316.149C1036.87 312.5 1025.67 312.459 1014.81 312.91C1008.67 313.971 1002.66 315.747 996.716 317.604L996.719 317.603ZM1112.72 322.146C1122.32 337.065 1130.02 353.672 1132.09 371.454C1132.61 374.942 1132.28 378.543 1130.57 381.687C1137.19 377.563 1144.99 376.204 1152.38 374.13C1167.79 370.039 1184.15 370.183 1199.62 373.865C1196.19 360.586 1187.9 349.124 1178.58 339.316C1168.38 329.798 1155.13 324.332 1141.79 320.844C1132.23 318.159 1122.28 320.667 1112.72 322.146L1112.72 322.146ZM895.04 358.858C886.567 361.293 879.526 366.751 872.694 372.097C860.628 382.796 852.019 397.402 848.594 413.174C847.823 419.87 847.107 426.574 846.721 433.302C849.495 436.71 851.745 440.818 851.641 445.36C852.099 453.494 846.118 461.284 838.217 463.1C831.32 464.732 823.844 467.803 816.914 464.684C808.658 461.42 804.068 451.477 806.81 443.035C807.758 439.306 811.52 436.653 811.295 432.626C811.408 419.137 812.388 405.4 817.444 392.747C802.131 381.388 782.976 374.146 763.708 376.236C755.726 376.405 748.258 379.475 740.839 382.112C729.875 386.292 720.984 394.25 713.155 402.762C698.348 420.945 692.4 446.298 698.79 469C701.049 475.101 702.938 481.347 705.92 487.143C708.742 492.987 707.303 499.964 703.87 505.238C708.259 509.836 710.944 516.331 709.32 522.705C707.785 530.261 700.816 534.61 695.671 539.658C675.431 558.878 657.385 580.583 643.044 604.569C629.266 626.481 619.523 650.669 611.18 675.083C605.996 692.687 602.105 710.694 599.959 728.916C597.169 747.549 597.547 766.472 598.439 785.233C599.621 813.625 605.77 841.68 615.007 868.495C619.685 880.754 623.769 893.358 630.304 904.806C640.657 923.913 651.253 943.109 665.263 959.829C677.77 976.01 692.368 990.472 707.866 1003.75C722.745 1015.59 737.921 1027.23 754.641 1036.41C771.297 1045.99 788.844 1053.99 807.075 1060.09C831.633 1069.06 857.539 1074.22 883.633 1075.64C893.6 1075.91 903.504 1077.88 913.496 1077.19C921.229 1076.72 928.954 1076.19 936.671 1075.54C981.792 1072.78 1025.72 1057.99 1064.83 1035.65C1095.12 1018 1122.83 995.552 1145.3 968.574C1181.33 927.37 1205.1 875.996 1215.27 822.34C1216.99 808.497 1220.13 794.6 1218.68 780.613C1218.85 776.73 1220.6 773.049 1220.35 769.126C1219.48 747.076 1218.71 724.849 1213.8 703.25C1209.74 684.159 1204.08 665.405 1196.7 647.326C1194.97 643.532 1191.38 640.759 1190.53 636.531C1189.59 631.145 1186.88 626.386 1184.33 621.651C1170.84 594.706 1152.46 570.438 1131.66 548.726C1105.56 521.957 1074.62 499.932 1040.73 484.144C993.379 462.006 940.389 452.071 888.244 455.625C882.384 455.938 876.138 457.53 870.607 454.781C862.85 451.348 858.518 442.016 860.889 433.865C861.636 430.264 864.506 427.715 866.13 424.556C867.714 417.306 871.644 410.931 874.9 404.364C879.281 397.499 883.847 390.329 890.551 385.506C899.457 379.637 912.841 384.396 915.953 394.605C919.152 403.753 913.292 412.499 907.673 419.235C928.147 419.276 948.628 420.948 968.814 424.404C973.396 414.059 980.429 405.023 988.428 397.082C983.508 387.516 976.925 378.795 968.934 371.592C961.217 364.896 951.869 360.426 942.318 357.026C926.876 352.661 910.059 353.039 895.035 358.859L895.04 358.858ZM636.097 366.053C628.364 371.214 621.394 377.564 615.952 385.12C610.848 390.956 608.332 398.376 605.269 405.361C601.499 414.412 601.314 424.364 601.555 434.019C608.091 431.253 614.963 429.413 621.853 427.765C635.389 425.016 649.384 425.699 663.026 427.266C666.45 410.176 674.473 394.228 685.189 380.563C691.402 373.803 697.841 367.171 705.229 361.657C696.813 357.799 687.608 356.223 678.468 355.226C663.694 354.784 648.887 358.667 636.098 366.054L636.097 366.053ZM536.002 397.284C524.29 405.821 516.155 418.233 509.974 431.142C506.88 439.276 506.888 448.159 506.092 456.721C523.793 449.839 543.086 446.512 562.024 448.939C564.058 449.51 565.907 450.579 567.772 451.536C565.304 441.544 566.317 431.207 566.132 421.03C566.309 407.807 570.481 395.083 575.898 383.154C561.711 384.271 547.788 389.311 536.003 397.285L536.002 397.284ZM1005.09 432.791C1012.14 434.841 1019.15 437.076 1026.05 439.624C1030.92 435.822 1035.45 431.473 1041.03 428.66C1046.86 425.356 1053.09 421.907 1060.03 422.221C1069.39 422.253 1077.42 431.328 1076.37 440.637C1076.28 447.743 1070.77 453.072 1064.97 456.32C1082.77 465.218 1099.79 475.668 1115.68 487.655C1123.22 482.076 1131.76 477.88 1140.69 475.058C1140.42 464.239 1138.17 453.451 1134.13 443.411C1130.16 434.311 1123.91 426.418 1117.04 419.32C1100.69 404.971 1078.09 396.844 1056.36 400.566C1035.73 403.371 1016.48 415.357 1005.09 432.792L1005.09 432.791ZM1155.81 410.003C1168.43 426.932 1174.52 447.808 1176.15 468.652C1192.28 468.153 1208.39 471.521 1223.16 477.984C1232.71 482.341 1241.28 488.499 1249.56 494.889C1250.25 489.881 1251.04 484.841 1250.83 479.761C1251.04 462.14 1243.41 445.267 1232.66 431.634C1223.82 421.53 1211.81 414.785 1199.33 410.228C1191.41 408.396 1183.38 406.587 1175.19 406.627C1168.59 406.748 1162.17 408.436 1155.81 410.003H1155.81ZM592.828 481.826C578.664 494.808 570.513 513.811 569.854 532.935C569.316 551.206 575.907 569.406 587.619 583.385C593.31 588.73 598.833 594.261 604.644 599.486C608.31 592.894 612.369 586.528 616.204 580.057C612.98 579.028 609.612 578.015 607.072 575.676C603.648 572.91 602.209 568.634 600.28 564.84C595.328 555.346 591.51 544.881 591.461 534.053C591.381 523.916 601.791 515.693 611.646 517.767C620.215 518.964 625.384 527.156 627.04 535.017C628.35 541.786 631.798 547.782 634.716 553.94C647.505 537.228 662.038 521.841 677.698 507.782C673.744 503.361 671.284 497.919 669.186 492.437C664.917 483.289 662.474 473.305 661.662 463.265C637.563 457.839 610.376 463.916 592.829 481.826L592.828 481.826ZM1284.96 461.472C1287.42 477.935 1286.83 494.968 1282.29 511.046C1281.51 515.483 1279.26 519.462 1276.25 522.758C1285.26 522.155 1293.95 524.775 1302.69 526.512C1316.76 529.695 1329.72 536.737 1341.05 545.539C1343.93 530.555 1340.97 514.84 1335.09 500.916C1329.32 489.638 1320.55 480.153 1310.88 472.082C1303.39 466.214 1293.9 464.044 1284.96 461.471L1284.96 461.472ZM531.094 486.077C510.733 491.189 492.734 505.361 483.089 524.034C479.399 530.73 478.169 538.342 476.425 545.697C474.536 553.14 475.484 560.873 475.991 568.421C476.666 577.617 481.007 585.905 484.921 594.064C491.907 586.765 499.246 579.627 508.017 574.483C517.285 569.041 527.108 564.491 537.357 561.187C531.095 535.248 534.335 507.033 547.188 483.559C541.826 484.435 536.352 484.604 531.095 486.075L531.094 486.077ZM1167.63 504.765C1159.64 505.745 1152.16 508.904 1144.62 511.509C1150.44 516.886 1156.07 522.473 1161.47 528.285C1170.55 526.476 1180.02 525.399 1189.22 526.959C1197.4 528.213 1203.98 536.066 1203.48 544.394C1203.62 552.77 1196.72 559.764 1188.75 561.267C1193.57 567.545 1197.84 574.233 1202.16 580.856C1208.75 590.454 1213.65 601.057 1219.14 611.298C1227.3 610.727 1235.56 610.036 1243.67 611.419C1247.61 604.321 1249.33 596.29 1250.85 588.389C1253.22 576.766 1251.21 564.749 1247.79 553.533C1246.04 547.481 1242.39 542.288 1239.22 536.934C1232.71 525.929 1222.17 518.036 1211.23 511.814C1197.83 505.223 1182.43 502.747 1167.63 504.764L1167.63 504.765ZM412.665 585.214C406.073 594.498 403.413 605.889 401.861 616.983C401.242 623.799 400.157 630.857 402.207 637.529C404.024 643.718 406.001 649.884 408.879 655.68C411.982 652.81 414.988 649.836 418.035 646.886C428.115 637.673 440.093 630.672 452.744 625.583C455.718 624.289 458.99 624.466 462.149 624.522C454.899 615.43 450.268 604.619 445.759 593.983C441.217 583.091 440.068 571.203 439.891 559.498C428.565 565.173 419.642 574.819 412.665 585.213L412.665 585.214ZM1285.91 559.595C1287.04 567.143 1287.56 574.771 1287.48 582.4C1286.5 595.502 1283.45 608.421 1278.89 620.744C1303.08 631.949 1323.02 652.078 1333.39 676.676C1336.3 671.997 1339.42 667.423 1341.62 662.351C1348.5 647.617 1349.6 630.582 1346.22 614.797C1343.38 601.115 1335.27 589.234 1325.83 579.219C1314.81 568.978 1301.11 561.092 1285.91 559.597V559.595ZM507.758 622.563C500.661 630.85 496.866 641.372 494.487 651.87C489.969 671.974 494.945 693.655 507.011 710.237C513.024 719.111 521.576 725.936 530.717 731.385C540.492 737.615 552.831 737.929 562.63 744.014C563.016 735.003 564.334 726.072 565.588 717.165C561.939 718.821 557.992 720.115 553.916 719.561C547.092 719.135 542.438 713.58 537.285 709.81C531.996 705.959 527.695 700.984 523.644 695.903C520.493 691.764 517.374 687.029 517.671 681.595C517.35 672.584 525.436 664.32 534.464 664.497C542.02 663.999 548.185 669.465 552.59 674.996C557.622 681.241 564.6 685.445 570.347 690.944C574.648 669.264 582.204 648.396 590.942 628.147C585.203 628.267 579.945 625.606 575.95 621.627C571.36 616.973 565.943 613.203 561.706 608.203C557.88 604.031 554.938 599.168 551.763 594.514C534.52 598.525 518.179 608.027 507.76 622.56L507.758 622.563ZM1234.36 646.048C1237.19 653.492 1239.55 661.088 1241.91 668.677C1251.62 671.94 1262.5 674.729 1269.15 683.162C1274.43 690.22 1273 701.289 1265.95 706.642C1261.99 710.179 1256.5 710.693 1251.45 710.316C1254.41 729.407 1255.25 748.748 1255.95 768.04C1263.44 771.231 1271.19 774.069 1277.82 778.94C1291.46 768.201 1301.64 752.839 1305.09 735.717C1312.43 704.471 1296.24 669.305 1267.41 654.988C1257.31 649.273 1245.77 647.151 1234.36 646.049V646.048ZM1380.1 661.74C1374.71 677.6 1367.02 692.857 1355.86 705.453C1353.31 708.942 1349.79 711.546 1345.76 713.089C1352.19 715.678 1357.45 720.284 1362.95 724.376C1368.22 728.226 1372.99 732.703 1377.62 737.317C1384.43 744.496 1389.21 753.258 1394 761.851C1400.69 752.864 1404.3 741.988 1406.63 731.152C1410.15 714.062 1405.32 696.548 1398.01 681.114C1393.51 673.453 1386.81 667.448 1380.1 661.741L1380.1 661.74ZM433.966 681.435C424.2 694.369 417.568 710.101 417.166 726.45C416.868 734.457 419.095 742.246 420.88 749.994C422.286 756.666 426.298 762.325 429.28 768.338C433.821 776.947 441.715 782.928 449.223 788.796C450.622 784.519 452.061 780.267 453.837 776.143C459.528 760.661 470.903 748.266 481.988 736.409C473.476 725.524 466.547 713.346 462.447 700.114C457.881 688.177 457.367 675.204 457.302 662.575C448.412 667.31 440.558 673.845 433.966 681.433L433.966 681.435ZM1338.24 750.388C1335.91 757.59 1333.4 764.801 1329.8 771.497C1323.4 783.104 1314.92 793.442 1305.39 802.614C1311.9 811.07 1317.93 820.057 1321.67 830.129C1328.42 844.55 1330.48 860.692 1330.17 876.478C1341.56 870.144 1352.18 861.542 1358.65 850.055C1367.65 835.626 1372.39 818.159 1369.48 801.19C1367.79 792.966 1366.15 784.462 1361.76 777.179C1359.23 772.854 1356.95 768.369 1353.87 764.406C1349.43 758.931 1343.87 754.542 1338.25 750.387L1338.24 750.388ZM509.552 760.065C501.61 766.504 495.316 774.735 489.729 783.216C483.218 796.399 478.998 811.342 481.2 826.118C482.985 846.334 493.668 865.579 509.922 877.732C523.137 887.764 539.713 892.981 556.248 892.893C562.823 892.193 569.431 891.526 575.926 890.216C578.948 889.557 582.051 889.894 585.082 890.272C581.577 881.502 578.611 872.539 575.998 863.479C573.522 866.847 570.661 870.24 566.593 871.686C560.958 874.195 554.785 872.225 549.126 870.923C541.336 869.516 533.869 866.727 526.81 863.182C521.063 859.894 515.476 854.629 515.13 847.587C514.118 839.766 519.335 831.912 526.77 829.509C532.911 827.387 539.294 829.702 544.881 832.282C552.903 836.125 562.171 836.084 570.106 840.168C564.591 817.822 562.71 794.782 562.284 771.833C559.358 773.521 556.296 775.322 552.815 775.458C545.62 776.037 539.118 772.275 532.181 771.093C524.231 768.36 516.442 764.928 509.553 760.065L509.552 760.065ZM379.491 819.814C379.877 833.287 383.904 846.478 389.764 858.543C394.362 865.978 401.114 871.726 407.521 877.562C412.955 859.523 422.489 842.714 435.849 829.379C437.674 827.619 440.19 826.96 442.553 826.268C434.161 823.134 427.642 816.783 420.576 811.526C408.88 802.563 399.82 790.569 393.68 777.218C384.661 789.484 380.408 804.749 379.492 819.813L379.491 819.814ZM1253.52 805.673C1252.55 813.511 1251.45 821.324 1250.29 829.137C1256.47 834.354 1262 840.391 1266.49 847.135C1269.66 851.668 1270.59 857.609 1268.92 862.89C1266.63 869.795 1259.66 874.988 1252.31 874.618C1247.64 874.859 1243.51 872.416 1240.01 869.618C1234.52 888.139 1227.01 905.993 1218.32 923.219C1225.06 929.569 1230.83 936.884 1235.92 944.61C1246.32 942.223 1256.18 937.552 1264.93 931.483C1276.09 922.834 1285.47 911.363 1289.86 897.811C1301.26 869.725 1291.74 835.359 1268.72 816.059C1264.12 811.951 1258.54 809.178 1253.52 805.673H1253.52ZM439.541 901.741C438.399 919.635 443.158 938.484 455.103 952.214C466.309 966.82 483.197 977.367 501.629 979.616C498.213 958.966 500.817 937.519 508.743 918.18C494.708 912.135 482.434 902.545 472.225 891.251C464.781 882.665 459.009 872.786 453.977 862.651C445.842 874.089 440.28 887.618 439.54 901.741H439.541ZM1371.87 889.836C1361.57 900.158 1348.74 907.658 1335.35 913.253C1332.16 914.772 1328.59 914.667 1325.16 914.595C1330.98 920.728 1333.84 928.855 1337.87 936.139C1344.87 949.507 1347.71 964.611 1347.54 979.619C1358.68 974.112 1367.48 964.788 1374.37 954.595C1382.81 942.546 1385.82 927.611 1386.4 913.134C1386.9 902.716 1382.78 892.869 1378.67 883.544C1376.42 885.666 1374.12 887.716 1371.87 889.838V889.836ZM588.261 923.262C583.365 925.73 577.803 926.132 572.473 927C562.956 928.623 553.173 929.025 543.599 927.763C540.159 934.371 538.27 941.638 536.855 948.92C534.098 962.714 536.437 977.102 541.292 990.174C545.714 998.871 550.971 1007.29 558.004 1014.15C570.512 1026.18 587.224 1033.95 604.635 1034.8C617.545 1036.02 630.43 1032.81 642.207 1027.7C650.125 1023.24 657.151 1017.41 665.004 1012.87C659.04 1007.16 653.485 1001.04 647.954 994.923C646.363 1001.1 642.022 1006.86 635.671 1008.62C627.014 1010.64 618.284 1012.71 609.337 1012.82C602.271 1013.11 594.113 1012.71 589 1007.15C582.417 1000.75 582.561 989.079 589.289 982.843C593.518 978.373 599.98 977.465 605.833 977.385C614.385 977.521 622.464 974.169 630.986 973.831C617.224 955.857 606.38 935.875 595.889 915.883C593.727 918.68 591.508 921.654 588.261 923.262H588.261ZM1250.1 977.955C1252.48 988.076 1253.8 998.526 1253 1008.94C1252.31 1017.18 1252.15 1025.58 1249.4 1033.47C1246.78 1040.93 1244.41 1048.56 1240.52 1055.49C1245.99 1054.7 1251.57 1054.43 1256.89 1052.84C1283.21 1046.25 1305.6 1024.09 1310.38 997.056C1313.09 987.329 1312.35 977.153 1311 967.273C1309.91 959.347 1306.06 952.225 1302.57 945.176C1288.72 960.963 1269.96 971.598 1250.1 977.957L1250.1 977.955ZM1199.73 955.418C1195.62 961.704 1191.46 967.958 1186.97 973.986C1192.14 984.042 1196.38 995.168 1195.81 1006.65C1194.86 1017.1 1183.09 1024.3 1173.28 1020.77C1166.26 1018.71 1162.6 1011.82 1160.47 1005.35C1147.09 1019.3 1132.55 1032.12 1117.11 1043.74C1121.63 1053.94 1125.12 1064.68 1126.05 1075.86C1137.66 1078.01 1149.84 1078.75 1161.39 1075.75C1170.46 1073.55 1178.93 1069.35 1186.77 1064.36C1198.53 1055.07 1208.71 1043.02 1213.35 1028.56C1216.92 1020.54 1217.29 1011.68 1217.69 1003.05C1217.4 985.731 1210.8 968.704 1199.73 955.417L1199.73 955.418ZM446.497 993.608C443.852 1007.14 446.216 1021.14 450.613 1034.05C456.023 1047.38 465.966 1058.27 476.939 1067.33C484.302 1073.08 493.763 1074.8 502.388 1077.83C501.841 1070.18 500.813 1062.55 500.989 1054.89C501.6 1043.74 503.168 1032.54 507.316 1022.1C508.288 1019.7 510.25 1017.93 512.115 1016.22C505.274 1016.8 498.481 1015.72 491.874 1014.05C475.25 1011.46 459.648 1003.97 446.496 993.608L446.497 993.608ZM688.478 1033.86C686.492 1041.85 679.202 1046.2 672.875 1050.49C665.086 1056.65 656.107 1061.16 646.679 1064.2C646.936 1070.43 647.684 1076.64 649.259 1082.66C652.338 1097.58 660.931 1110.98 672.064 1121.2C679.58 1127.15 687.876 1132.37 697.016 1135.4C722.529 1144.56 752.851 1137.59 772.086 1118.57C780.285 1111.37 785.406 1101.53 790.462 1092.05C783.806 1089.61 777.174 1087.09 770.639 1084.35C770.149 1089.15 768.34 1094.02 764.49 1097.15C757.85 1102.63 751.186 1108.25 743.388 1112.05C736.901 1115.86 728.726 1118.67 721.388 1115.62C713.245 1112.34 708.864 1102.43 711.79 1094.17C713.671 1088.05 719.362 1084.43 724.7 1081.6C730.793 1078.49 736.235 1074.29 741.484 1069.96C722.602 1059.83 705.167 1047.24 688.478 1033.86V1033.86ZM537.838 1044.06C535.852 1057.25 535.868 1071.23 541.27 1083.65C547.54 1101.94 561.398 1117.79 579.462 1125.11C587.573 1129.53 596.793 1131.1 605.852 1132.28C614.549 1133.24 623.19 1131.35 631.55 1129.09C619.484 1111.95 612.635 1091.38 611.486 1070.49C594.613 1071.03 577.813 1067.3 562.507 1060.28C553.793 1055.68 545.369 1050.42 537.838 1044.06V1044.06ZM1069.17 1073.81C1069.04 1082.48 1070 1091.24 1068 1099.8C1066.64 1106.6 1065.11 1114.34 1059.16 1118.71C1051.79 1124.53 1039.89 1122.67 1034.68 1114.85C1029.49 1107.52 1031.93 1098.05 1033.48 1089.95C1014.87 1097.09 995.66 1102.67 976.102 1106.55C975.909 1119.95 975.21 1133.56 970.138 1146.13C985.218 1158.12 1004.87 1164.91 1024.2 1162.85C1030.95 1162.65 1037.31 1160.3 1043.6 1158.11C1052.56 1155 1060.79 1149.88 1067.59 1143.29C1089.02 1124.04 1097.1 1091.08 1086.66 1064.2C1080.91 1067.52 1075.12 1070.83 1069.17 1073.81L1069.17 1073.81ZM1230.47 1090.69C1226.51 1090.88 1222.75 1089.51 1219.43 1087.45C1221.56 1093.67 1221.19 1100.31 1221.5 1106.79C1221.64 1116.71 1221.32 1126.8 1218.72 1136.45C1217.28 1143.29 1214.03 1149.53 1211.41 1155.96C1226.32 1154.94 1240.78 1149.31 1252.99 1140.78C1263.27 1132.36 1271.02 1121.27 1276.9 1109.45C1280.27 1100.87 1281.19 1091.54 1281.2 1082.39C1265.12 1088.68 1247.77 1091.96 1230.47 1090.69V1090.69ZM824.046 1102.45C822.398 1109.64 818.041 1115.7 814.705 1122.16C810.71 1129.62 804.979 1135.92 799.231 1142.03C803.532 1151.54 810.365 1159.7 817.776 1166.93C829.761 1176.93 844.73 1183.92 860.46 1184.73C872.26 1186.29 884.069 1183.5 895.073 1179.37C902.436 1176.71 908.601 1171.7 914.783 1167.03C924.759 1158.32 932.283 1146.85 936.518 1134.31C939.524 1126.92 939.637 1118.84 940.457 1111.02C933.946 1111.5 927.435 1112.03 920.923 1112.45C920.771 1115.8 920.449 1119.23 918.777 1122.21C915.152 1128.97 912.612 1136.38 907.604 1142.31C902.981 1148.76 896.929 1156.15 888.231 1156.08C878.48 1156.81 869.622 1147.6 870.586 1137.9C871.197 1127.47 881.109 1121.19 884.043 1111.6C863.866 1110.09 843.594 1107.76 824.044 1102.46L824.046 1102.45ZM1172.89 1109.61C1157.14 1114.26 1140.5 1113.65 1124.37 1111.9C1121.97 1123.48 1117.81 1134.73 1111.65 1144.85C1104.52 1157.82 1093.78 1168.33 1082.37 1177.55C1100.95 1185.59 1122.74 1186.02 1141.35 1177.87C1153.86 1173.18 1164.44 1164.13 1171.97 1153.2C1177.07 1147.58 1179.32 1140.26 1182.25 1133.43C1185.86 1124.5 1186.34 1114.66 1185.94 1105.14C1181.64 1106.77 1177.31 1108.36 1172.89 1109.61L1172.89 1109.61ZM647.893 1161.52C638.64 1164.07 629.372 1166.89 619.749 1167.64C609.115 1168.86 598.408 1167.52 587.95 1165.57C591.197 1177.52 598.183 1188.15 606.543 1197.16C616.285 1208.33 630.586 1214.06 644.524 1217.98C654.5 1221.16 664.974 1218.45 674.982 1216.98C664.396 1201.69 657.242 1183.98 655.087 1165.46C654.926 1162.88 655.618 1160.38 656.156 1157.9C653.52 1159.32 650.787 1160.65 647.893 1161.52L647.893 1161.52ZM757.473 1168.62C748.542 1172.37 738.816 1173.51 729.291 1174.65C716.888 1176.03 704.5 1173.95 692.355 1171.61C695.594 1181.88 700.087 1191.93 707.153 1200.16C717.844 1212.05 731.742 1221.66 747.586 1224.97C755.536 1226.77 763.743 1226.43 771.846 1226.27C777.368 1225.61 782.673 1223.82 788.027 1222.36C797.713 1219.77 806.106 1213.85 813.388 1207.14C795.028 1197.17 780.487 1181.37 770.013 1163.46C765.865 1165.25 761.693 1167 757.473 1168.62L757.473 1168.62ZM952.943 1178.19C943.088 1191.2 930.066 1201.5 915.758 1209.2C906.465 1213.7 896.514 1216.72 886.45 1218.98C893.219 1226.21 901.008 1232.46 909.737 1237.14C924.696 1244.22 941.915 1247.24 958.223 1243.65C967.484 1241.66 975.828 1237.01 984.091 1232.54C990.417 1227.46 996.88 1222.38 1001.98 1216.01C1006.13 1210.87 1008.35 1204.57 1011.28 1198.75C1007.16 1198.36 1003.05 1197.84 998.954 1197.14C982.282 1194.91 967.057 1186.98 952.942 1178.19L952.943 1178.19ZM1049.37 1197.67C1047.55 1206.73 1042.91 1214.8 1039.22 1223.16C1033.26 1235.99 1023.45 1246.55 1012.55 1255.37C1023.4 1260.15 1035.52 1261.74 1047.29 1260.93C1058.13 1260.63 1068.35 1256.27 1077.85 1251.35C1084.71 1246.89 1092.06 1242.68 1097.04 1236.02C1101.21 1231.05 1103.98 1225.15 1107.22 1219.59C1094.19 1218.22 1081.08 1216.06 1069.08 1210.56C1061.91 1207.37 1054.13 1204.25 1049.37 1197.67H1049.37ZM831.9 1238.26C826.876 1242.63 821.16 1246.12 815.461 1249.5C807.551 1254.1 798.652 1256.45 789.954 1258.95C793.563 1263.15 797.655 1266.93 802.317 1269.92C813.45 1277.37 826.264 1283.32 839.889 1283.52C849.535 1283.92 859.326 1283.07 868.666 1280.54C876.825 1277.63 883.947 1272.46 890.981 1267.54C874.679 1258.47 860.484 1245.5 850.331 1229.82C848.803 1227.41 848.562 1224.54 848.578 1221.78C844.575 1228.71 837.758 1233.1 831.898 1238.26L831.9 1238.26Z" fill="#FFE600"/>
<path d="M726.65 422.025C734.005 414.059 748.49 415.867 753.706 425.353C759.172 434.886 753.256 445.763 753.891 455.916C761.359 452.234 768.899 448.649 776.641 445.579C783.714 442.781 792.38 445.273 796.962 451.358C802.026 457.66 801.889 467.395 796.672 473.577C793.481 477.684 788.353 479.292 783.763 481.302C770.652 486.945 758.056 493.737 745.861 501.165C741.601 503.833 736.4 505.312 731.384 504.123C723 502.523 716.633 494.147 717.389 485.626C717.429 481.487 719.559 477.861 721.891 474.597C716.593 467.419 718.539 458.199 718.345 449.912C719.463 440.362 719.736 429.502 726.649 422.026L726.65 422.025Z" fill="#FFE600"/>
</g>
<defs>
<linearGradient id="paint0_linear_230_2" x1="893.5" y1="1284" x2="893.5" y2="1816" gradientUnits="userSpaceOnUse">
<stop stop-color="#FFE600"/>
<stop offset="0.765625" stop-color="#0000C8"/>
</linearGradient>
<clipPath id="clip0_230_2">
<rect width="1787" height="1787" fill="white"/>
</clipPath>
</defs>
</svg>
