<svg width="450" height="450" viewBox="0 0 450 450" fill="none" xmlns="http://www.w3.org/2000/svg">
<g clip-path="url(#clip0)">
<path d="M129.712 73.3365H182.785V212.811H129.712V73.3365Z" fill="#A1550A"/>
<path d="M125.25 189.75C125.25 187.633 126.513 185.728 128.456 184.886C132.147 183.287 135.994 180.999 139.268 177.725C149.223 167.77 150.087 152.493 150.087 152.493C150.087 152.493 141.502 152.982 133.01 157.423C129.478 159.27 125.247 156.726 125.247 152.74L125.245 129.717C125.245 127.599 126.508 125.695 128.45 124.853C132.141 123.254 135.989 120.966 139.262 117.692C149.217 107.737 150.081 92.46 150.081 92.46C150.081 92.46 141.495 92.9497 133.003 97.3903C129.471 99.2371 125.239 96.6933 125.239 92.7074L125.238 75.9934C125.236 58.327 139.563 43.9983 157.229 44C174.87 44.0017 189.163 58.296 189.165 75.9383L189.177 212.811H125.195L125.25 189.75Z" fill="#CF7A15"/>
<path d="M189.165 75.9383C189.162 58.296 174.869 44.0017 157.229 44C153.179 43.9994 149.308 44.7601 145.742 46.1333C157.708 50.7444 166.2 62.3433 166.201 75.9383L166.214 212.811H189.177L189.165 75.9383Z" fill="#C4710E"/>
<path d="M260.872 73.3365H313.946V212.811H260.872V73.3365Z" fill="#CF7A15"/>
<path d="M256.411 189.75C256.411 187.633 257.674 185.728 259.616 184.886C263.307 183.287 267.155 180.999 270.428 177.725C280.383 167.77 281.247 152.493 281.247 152.493C281.247 152.493 272.663 152.982 264.171 157.423C260.639 159.27 256.407 156.726 256.407 152.74L256.405 129.717C256.405 127.599 257.668 125.695 259.611 124.853C263.302 123.254 267.149 120.966 270.423 117.692C280.377 107.737 281.241 92.46 281.241 92.46C281.241 92.46 272.656 92.9497 264.164 97.3903C260.632 99.2371 256.4 96.6933 256.4 92.7074L256.399 75.9934C256.396 58.327 270.724 43.9983 288.389 44C306.03 44.0017 320.324 58.296 320.325 75.9383L320.338 241.515L256.355 212.811L256.411 189.75Z" fill="#F0A346"/>
<path d="M297.362 75.9383L297.374 231.213L320.338 241.515L320.325 75.9383C320.323 58.296 306.03 44.0017 288.389 44C284.34 43.9994 280.468 44.7601 276.902 46.1333C288.869 50.7444 297.36 62.3433 297.362 75.9383V75.9383Z" fill="#EB8F21"/>
<path d="M174.666 95.6784H227.74V219.413H174.666V95.6784Z" fill="#CF7A15"/>
<path d="M170.204 212.092C170.204 209.974 171.467 208.069 173.41 207.228C177.101 205.629 180.948 203.341 184.222 200.067C194.177 190.112 195.041 174.835 195.041 174.835C195.041 174.835 186.456 175.324 177.964 179.765C174.433 181.611 170.201 179.068 170.201 175.082L170.199 152.059C170.199 149.941 171.462 148.036 173.404 147.195C177.095 145.596 180.943 143.308 184.216 140.034C194.171 130.079 195.035 114.802 195.035 114.802C195.035 114.802 186.45 115.291 177.959 119.731C174.427 121.578 170.195 119.035 170.195 115.049L170.193 98.3346C170.192 80.6682 184.519 66.3395 202.185 66.3412C219.826 66.3429 234.119 80.6372 234.121 98.2795L234.133 216.819H170.149L170.204 212.092Z" fill="#F0A346"/>
<path d="M234.119 98.2801C234.117 80.6377 219.823 66.3435 202.183 66.3418C198.133 66.3412 194.262 67.1019 190.696 68.4751C202.662 73.0856 211.154 84.6851 211.155 98.2801L211.168 216.82H234.131L234.119 98.2801Z" fill="#EB8F21"/>
<path d="M102 211.972H294.973V460.974H102V211.972Z" fill="#FFF4DB"/>
<path d="M294.973 211.972H321.218V460.974H294.973V211.972Z" fill="#F5E8C9"/>
<path d="M321.218 211.972H347.463V460.974H321.218V211.972Z" fill="#FFF4DB"/>
<circle cx="224.84" cy="336.657" r="71.762" fill="black"/>
<path d="M192.46 335.673C193.495 335.673 194.335 335.397 194.979 334.845C195.624 334.292 195.946 333.533 195.946 332.567C195.946 331.577 195.624 330.806 194.979 330.254C194.335 329.702 193.495 329.426 192.46 329.426H189.284V335.673H192.46ZM189.25 340.367V349.168H183.797V324.697H193.012C194.255 324.697 195.382 324.893 196.394 325.284C197.43 325.675 198.316 326.216 199.052 326.906C199.811 327.597 200.387 328.425 200.778 329.391C201.192 330.358 201.399 331.405 201.399 332.532C201.399 333.683 201.192 334.741 200.778 335.708C200.387 336.674 199.811 337.502 199.052 338.193C198.316 338.883 197.43 339.424 196.394 339.815C195.382 340.183 194.255 340.367 193.012 340.367H189.25Z" fill="white"/>
<path d="M210.754 344.854C211.261 344.854 211.744 344.773 212.204 344.612C212.664 344.428 213.067 344.164 213.412 343.819C213.78 343.45 214.068 343.002 214.275 342.472C214.505 341.943 214.62 341.31 214.62 340.574C214.62 339.861 214.505 339.24 214.275 338.71C214.068 338.158 213.78 337.709 213.412 337.364C213.067 337.019 212.664 336.766 212.204 336.605C211.744 336.421 211.261 336.329 210.754 336.329C210.271 336.329 209.788 336.421 209.305 336.605C208.845 336.766 208.43 337.019 208.062 337.364C207.717 337.709 207.43 338.158 207.199 338.71C206.992 339.24 206.889 339.861 206.889 340.574C206.889 341.287 206.992 341.92 207.199 342.472C207.43 343.002 207.717 343.45 208.062 343.819C208.43 344.164 208.845 344.428 209.305 344.612C209.788 344.773 210.271 344.854 210.754 344.854ZM210.754 331.497C212.043 331.497 213.24 331.727 214.344 332.187C215.448 332.624 216.403 333.245 217.209 334.051C218.037 334.856 218.681 335.811 219.142 336.916C219.625 338.02 219.866 339.24 219.866 340.574C219.866 341.909 219.625 343.14 219.142 344.267C218.681 345.372 218.037 346.327 217.209 347.132C216.403 347.937 215.448 348.57 214.344 349.03C213.24 349.467 212.043 349.686 210.754 349.686C209.466 349.686 208.269 349.467 207.165 349.03C206.06 348.57 205.094 347.937 204.266 347.132C203.46 346.327 202.816 345.372 202.333 344.267C201.873 343.14 201.643 341.909 201.643 340.574C201.643 339.24 201.873 338.02 202.333 336.916C202.816 335.811 203.46 334.856 204.266 334.051C205.094 333.245 206.06 332.624 207.165 332.187C208.269 331.727 209.466 331.497 210.754 331.497Z" fill="white"/>
<path d="M221.69 349.168V332.014H226.937V349.168H221.69ZM221.242 326.768C221.242 326.354 221.322 325.963 221.483 325.595C221.644 325.204 221.863 324.87 222.139 324.594C222.415 324.318 222.737 324.099 223.105 323.938C223.474 323.777 223.865 323.696 224.279 323.696C225.153 323.696 225.89 323.996 226.488 324.594C227.086 325.192 227.385 325.917 227.385 326.768C227.385 327.62 227.086 328.344 226.488 328.943C225.89 329.541 225.153 329.84 224.279 329.84C223.865 329.84 223.474 329.759 223.105 329.598C222.737 329.437 222.415 329.219 222.139 328.943C221.863 328.667 221.644 328.344 221.483 327.976C221.322 327.585 221.242 327.182 221.242 326.768Z" fill="white"/>
<path d="M234.732 349.168H229.486V332.014H234.559V333.982C234.79 333.568 235.089 333.211 235.457 332.912C235.825 332.613 236.216 332.371 236.63 332.187C237.068 331.98 237.516 331.83 237.976 331.738C238.46 331.623 238.92 331.566 239.357 331.566C240.438 331.566 241.37 331.75 242.153 332.118C242.935 332.463 243.579 332.946 244.086 333.568C244.615 334.189 244.994 334.914 245.224 335.742C245.478 336.57 245.604 337.456 245.604 338.4V349.168H240.358V339.297C240.358 338.446 240.128 337.744 239.668 337.192C239.23 336.616 238.529 336.329 237.562 336.329C236.688 336.329 235.998 336.616 235.491 337.192C234.985 337.744 234.732 338.457 234.732 339.332V349.168Z" fill="white"/>
<path d="M255.005 332.014H258.353V336.605H255.005V343.025C255.005 343.738 255.178 344.221 255.523 344.474C255.868 344.704 256.328 344.819 256.904 344.819C257.18 344.819 257.433 344.808 257.663 344.785C257.916 344.739 258.123 344.693 258.284 344.647V348.996C258.169 349.042 257.893 349.134 257.456 349.272C257.019 349.41 256.386 349.479 255.558 349.479C253.763 349.479 252.359 348.996 251.347 348.029C250.334 347.04 249.828 345.682 249.828 343.957V336.605H246.791V332.014H247.654C248.551 332.014 249.218 331.75 249.656 331.221C250.093 330.691 250.311 330.024 250.311 329.219V327.01H255.005V332.014Z" fill="white"/>
<path d="M259.623 345.924C259.623 345.441 259.715 344.992 259.899 344.578C260.083 344.141 260.336 343.761 260.659 343.439C260.981 343.117 261.349 342.864 261.763 342.68C262.2 342.495 262.66 342.403 263.144 342.403C263.627 342.403 264.076 342.495 264.49 342.68C264.927 342.864 265.307 343.117 265.629 343.439C265.974 343.761 266.238 344.141 266.423 344.578C266.607 344.992 266.699 345.441 266.699 345.924C266.699 346.407 266.607 346.867 266.423 347.305C266.238 347.719 265.974 348.087 265.629 348.409C265.307 348.731 264.927 348.984 264.49 349.168C264.076 349.375 263.627 349.479 263.144 349.479C262.66 349.479 262.2 349.375 261.763 349.168C261.349 348.984 260.981 348.731 260.659 348.409C260.336 348.087 260.083 347.719 259.899 347.305C259.715 346.867 259.623 346.407 259.623 345.924Z" fill="white"/>
</g>
<defs>
<clipPath id="clip0">
<rect width="450" height="450" fill="white"/>
</clipPath>
</defs>
</svg>
